<svg width="500" height="500" viewBox="0 0 500 500" fill="none" xmlns="http://www.w3.org/2000/svg">
<path d="M93.1806 309.07C93.3459 307.037 94.1234 305.102 95.4106 303.52C96.6224 301.93 98.3006 300.759 100.211 300.17C101.841 299.706 103.578 299.794 105.154 300.42C106.729 301.046 108.053 302.174 108.921 303.63C109.655 302.168 110.836 300.976 112.292 300.229C113.748 299.481 115.404 299.215 117.021 299.47C118.987 299.833 120.791 300.802 122.181 302.24C123.649 303.652 124.647 305.481 125.041 307.48C125.512 310.033 125.147 312.671 124.001 315C122.639 317.37 120.733 319.382 118.441 320.87C114.721 323.42 109.831 326.62 109.831 326.62C109.831 326.62 105.351 323.67 101.371 321.62C98.9131 320.42 96.7798 318.647 95.1506 316.45C93.7163 314.266 93.0254 311.678 93.1806 309.07Z" fill="#0EA5E9" fill-opacity="0.3"/>
<path d="M371.89 198.62C372.05 196.586 372.828 194.65 374.12 193.07C375.326 191.479 377.002 190.307 378.91 189.72C380.54 189.257 382.278 189.344 383.853 189.97C385.428 190.596 386.752 191.724 387.62 193.18C388.355 191.718 389.535 190.527 390.991 189.779C392.447 189.031 394.103 188.766 395.72 189.02C397.687 189.384 399.491 190.352 400.88 191.79C402.348 193.204 403.35 195.032 403.75 197.03C404.209 199.59 403.834 202.23 402.68 204.56C401.321 206.932 399.415 208.945 397.12 210.43C393.41 212.98 388.51 216.18 388.51 216.18C388.51 216.18 384.04 213.18 380.05 211.18C377.592 209.98 375.459 208.207 373.83 206.01C372.403 203.821 371.723 201.228 371.89 198.62V198.62Z" fill="#0EA5E9" fill-opacity="0.3"/>
<path d="M120.25 284.24C120.349 282.935 120.848 281.691 121.68 280.68C122.457 279.657 123.534 278.902 124.76 278.52C125.414 278.342 126.098 278.297 126.769 278.388C127.441 278.479 128.088 278.704 128.67 279.05C129.358 279.473 129.937 280.052 130.36 280.74C130.832 279.802 131.59 279.038 132.525 278.56C133.46 278.081 134.523 277.913 135.56 278.08C136.823 278.305 137.983 278.924 138.87 279.85C139.815 280.759 140.457 281.935 140.71 283.22C141.012 284.862 140.773 286.556 140.03 288.05C139.158 289.574 137.934 290.867 136.46 291.82C134.07 293.46 130.93 295.52 130.93 295.52C130.93 295.52 128.05 293.62 125.49 292.28C123.911 291.509 122.539 290.371 121.49 288.96C120.581 287.561 120.147 285.906 120.25 284.24V284.24Z" fill="#0EA5E9" fill-opacity="0.3"/>
<path d="M354.78 223.1C354.885 221.796 355.384 220.554 356.21 219.54C356.988 218.52 358.065 217.769 359.29 217.39C360.338 217.101 361.452 217.162 362.462 217.562C363.473 217.963 364.325 218.682 364.89 219.61C365.222 218.956 365.693 218.382 366.27 217.93C366.806 217.513 367.421 217.209 368.078 217.037C368.734 216.865 369.419 216.829 370.09 216.93C371.353 217.162 372.511 217.785 373.4 218.71C374.346 219.617 374.989 220.794 375.24 222.08C375.541 223.721 375.302 225.416 374.56 226.91C373.691 228.436 372.466 229.729 370.99 230.68C368.6 232.31 365.46 234.37 365.46 234.37C365.46 234.37 362.59 232.48 360.02 231.13C358.439 230.362 357.066 229.223 356.02 227.81C355.112 226.414 354.678 224.762 354.78 223.1V223.1Z" fill="#0EA5E9" fill-opacity="0.3"/>
<path d="M405.33 273.65C405.429 272.345 405.928 271.101 406.76 270.09C407.537 269.067 408.614 268.311 409.84 267.93C410.494 267.752 411.178 267.707 411.849 267.798C412.521 267.889 413.168 268.114 413.75 268.46C414.439 268.883 415.017 269.462 415.44 270.15C415.909 269.21 416.667 268.444 417.603 267.965C418.539 267.486 419.603 267.32 420.64 267.49C421.9 267.723 423.057 268.342 423.95 269.26C424.895 270.168 425.537 271.345 425.79 272.63C426.087 274.272 425.848 275.965 425.11 277.46C424.237 278.986 423.009 280.28 421.53 281.23C419.15 282.87 416 284.93 416 284.93C416 284.93 413.13 283.03 410.57 281.69C408.991 280.919 407.619 279.781 406.57 278.37C405.662 276.971 405.227 275.316 405.33 273.65Z" fill="#0EA5E9" fill-opacity="0.3"/>
<path d="M126.901 325.68C126.968 324.821 127.3 324.003 127.85 323.34C128.353 322.668 129.052 322.169 129.851 321.91C130.282 321.792 130.733 321.762 131.176 321.822C131.619 321.883 132.046 322.031 132.43 322.26C132.881 322.544 133.261 322.927 133.54 323.38C133.761 322.949 134.071 322.57 134.45 322.27C134.805 321.997 135.211 321.798 135.644 321.686C136.077 321.574 136.528 321.552 136.971 321.62C137.803 321.77 138.566 322.179 139.15 322.79C139.782 323.383 140.218 324.153 140.4 325C140.595 326.084 140.438 327.202 139.95 328.19C139.376 329.198 138.566 330.052 137.59 330.68C136.02 331.76 133.941 333.11 133.941 333.11C133.941 333.11 132.051 331.86 130.361 330.98C129.324 330.467 128.423 329.717 127.731 328.79C127.127 327.87 126.836 326.779 126.901 325.68V325.68Z" fill="#0EA5E9" fill-opacity="0.3"/>
<path d="M72.7902 83.7201C72.7902 83.7201 68.1802 87.7201 78.1902 96.9301C83.2535 101.746 88.6321 106.219 94.2902 110.32C94.2902 110.32 96.2902 112.58 94.2302 113.81C92.1702 115.04 87.0002 116.06 87.0002 119.15C87.0002 122.24 90.0002 124.26 95.0702 125.06C100.14 125.86 111.07 128.06 112 128.22C112.93 128.38 114.22 129.35 112.94 130.42C111.66 131.49 101.07 136.7 103.85 141.57C106.63 146.44 120.97 146.38 122.54 146.41C124.11 146.44 124.65 146.89 124.82 147.69C124.99 148.49 121.26 149.9 118.31 151.5C115.36 153.1 112.22 155.5 114.05 158.17C115.88 160.84 125.67 164.29 144.52 159.36L153.11 156.51L155.11 147.63C158.17 128.39 153.79 118.99 150.94 117.43C148.09 115.87 146.03 119.22 144.72 122.31C143.41 125.4 142.37 129.25 141.56 129.17C140.75 129.09 140.24 128.58 140.06 127.02C139.88 125.46 138.55 111.18 133.42 108.9C128.29 106.62 124.15 117.66 123.21 119.04C122.27 120.42 121.21 119.26 120.93 118.32C120.65 117.38 117.42 106.69 116.13 101.77C114.84 96.8501 112.65 94.0301 109.46 94.3301C106.27 94.6301 105.88 99.8801 104.85 102.06C103.82 104.24 101.38 102.47 101.38 102.47C96.7353 97.2346 91.7441 92.3169 86.4402 87.7501C76.2702 78.7501 72.7002 83.8101 72.7002 83.8101" fill="#0EA5E9" fill-opacity="0.3"/>
<path d="M154.26 158.34C146.82 151.66 133.79 139.57 122.55 129.25C111.31 118.93 101.13 109.59 93.7205 102.88L84.9405 94.9403C83.9405 94.0003 83.1005 93.2802 82.5505 92.7702L81.9305 92.2103L81.7305 92.0103C81.8075 92.062 81.881 92.1187 81.9505 92.1803C82.1005 92.3203 82.3205 92.5003 82.5905 92.7303L85.0005 94.8503C87.1005 96.7003 90.1205 99.3903 93.8405 102.73C101.29 109.41 111.49 118.73 122.73 129.04C133.97 139.35 147 151.48 154.4 158.19" fill="#363636"/>
<path d="M94.29 118C94.5259 117.972 94.7642 117.972 95 118H96.78C98.28 118 100.36 118 102.65 118.14L108.51 118.4L110.29 118.47C110.506 118.45 110.724 118.45 110.94 118.47C110.726 118.515 110.508 118.535 110.29 118.53C109.86 118.53 109.29 118.53 108.5 118.53C107 118.53 104.93 118.44 102.64 118.35L96.77 118.12L95 118.06C94.7618 118.071 94.5231 118.051 94.29 118V118Z" fill="#363636"/>
<path d="M111.27 117.7C111.19 117.7 111.1 113.41 111.07 108.13C111.04 102.85 111.07 98.5503 111.16 98.5503C111.25 98.5503 111.32 102.84 111.35 108.12C111.38 113.4 111.34 117.7 111.27 117.7Z" fill="#363636"/>
<path d="M127.811 134.32C127.84 134.099 127.89 133.882 127.961 133.67C128.101 133.21 128.261 132.67 128.461 131.93C128.881 130.45 129.461 128.41 129.991 126.14C130.521 123.87 130.991 121.8 131.261 120.29C131.411 119.59 131.521 118.99 131.621 118.51C131.647 118.288 131.701 118.07 131.781 117.86C131.789 118.085 131.772 118.31 131.731 118.53C131.671 118.96 131.591 119.53 131.461 120.33C131.211 121.84 130.821 123.93 130.271 126.21C129.721 128.49 129.121 130.52 128.651 131.99C128.411 132.72 128.221 133.3 128.071 133.71C128.009 133.923 127.922 134.128 127.811 134.32V134.32Z" fill="#363636"/>
<path d="M112.521 138C112.703 137.904 112.898 137.833 113.101 137.79L114.721 137.34C116.091 136.96 117.981 136.47 120.081 135.94C122.181 135.41 124.081 134.94 125.461 134.62L127.091 134.25C127.291 134.201 127.495 134.167 127.701 134.15C127.517 134.244 127.322 134.315 127.121 134.36L125.511 134.81C124.141 135.19 122.241 135.68 120.151 136.21C118.061 136.74 116.151 137.21 114.771 137.53L113.131 137.9C112.93 137.951 112.726 137.984 112.521 138V138Z" fill="#363636"/>
<path d="M125.26 154.52C125.501 154.412 125.752 154.328 126.01 154.27L128.08 153.68C129.83 153.19 132.25 152.54 134.93 151.83C137.61 151.12 140.04 150.5 141.81 150.06L143.9 149.56C144.152 149.489 144.409 149.438 144.67 149.41C144.432 149.521 144.184 149.608 143.93 149.67L141.86 150.26C140.11 150.74 137.68 151.4 135 152.1C132.32 152.8 129.89 153.43 128.13 153.87L126.04 154.37C125.786 154.449 125.524 154.499 125.26 154.52V154.52Z" fill="#363636"/>
<path d="M144.181 149.4C144.211 149.119 144.268 148.841 144.351 148.57C144.491 148 144.671 147.24 144.901 146.34C145.361 144.45 145.991 141.84 146.601 138.94C147.211 136.04 147.711 133.39 148.051 131.48C148.221 130.56 148.361 129.8 148.461 129.21C148.499 128.929 148.559 128.652 148.641 128.38C148.641 128.665 148.617 128.949 148.571 129.23C148.501 129.77 148.401 130.55 148.251 131.51C147.961 133.44 147.501 136.09 146.881 138.99C146.261 141.89 145.601 144.51 145.091 146.39C144.831 147.33 144.611 148.08 144.451 148.6C144.378 148.873 144.288 149.14 144.181 149.4V149.4Z" fill="#363636"/>
<path d="M355.281 139.38C342.001 127.75 340.701 108.7 343.081 92.0002C343.481 89.2002 343.491 86.2102 345.081 83.8902C346.671 81.5702 349.971 80.2302 352.361 81.6802C354.361 82.8902 354.981 85.4102 355.931 87.5402C357.195 90.3848 359.241 92.8122 361.831 94.5402C363.521 95.6602 365.671 96.4602 367.541 95.6802C370.101 94.6102 370.741 91.3002 371.031 88.5002C371.557 83.3002 372.084 78.0969 372.611 72.8902C372.741 70.0838 373.329 67.3174 374.351 64.7002C375.501 62.1402 377.681 59.8902 380.421 59.4302C383.161 58.9702 386.271 60.8602 386.531 63.6502C386.519 64.8157 386.422 65.9788 386.241 67.1302C386.148 67.7151 386.233 68.3145 386.487 68.8498C386.74 69.3851 387.149 69.8314 387.661 70.1302C388.741 70.5802 389.941 69.9102 390.861 69.1302C394.041 66.6202 396.391 63.2002 398.611 59.7902C400.831 56.3802 403.001 52.8302 406.001 50.0002C409.001 47.1702 412.821 45.1702 416.841 45.3702C420.861 45.5702 424.841 48.5002 425.441 52.5302C426.041 56.5602 423.301 60.3202 420.441 63.2302C416.227 67.5648 411.411 71.2695 406.141 74.2302C405.131 74.6545 404.283 75.3902 403.721 76.3302C402.911 78.1202 404.481 80.1602 406.251 80.9702C408.251 81.8802 410.531 81.9102 412.681 82.4002C414.831 82.8902 417.081 84.1102 417.681 86.2502C418.521 89.2502 415.811 91.9602 413.251 93.6602C408.129 97.0799 402.456 99.5901 396.481 101.08C394.351 101.61 392.121 102.08 390.311 103.3C388.501 104.52 387.201 107 388.001 109C388.801 111 391.291 112 393.481 111.82C395.671 111.64 397.731 110.69 399.861 110.14C403.861 109.14 408.771 109.9 410.861 113.48C411.488 114.701 411.824 116.051 411.841 117.423C411.859 118.796 411.557 120.154 410.961 121.39C409.742 123.85 408.042 126.04 405.961 127.83C399.094 134.474 390.588 139.178 381.311 141.46C372.091 143.58 363.761 143.53 355.261 139.35" fill="#0EA5E9" fill-opacity="0.3"/>
<path d="M360.76 129.31C364.538 120.457 368.819 111.826 373.58 103.46C374.84 101.23 376.07 99.03 377.29 96.86C378.51 94.69 379.73 92.55 381.04 90.52C383.578 86.637 386.325 82.8948 389.27 79.31C392.06 75.87 394.83 72.71 397.44 69.77C400.05 66.83 402.56 64.15 404.94 61.77C408.663 58.0426 412.676 54.6152 416.94 51.52C418.45 50.42 419.65 49.61 420.47 49.07L421.41 48.46C421.512 48.3848 421.623 48.3211 421.74 48.27C421.646 48.3578 421.546 48.438 421.44 48.51L420.53 49.16C419.73 49.72 418.53 50.56 417.06 51.68C412.842 54.8309 408.865 58.2904 405.16 62.03C402.81 64.4 400.33 67.09 397.73 70.03C395.13 72.97 392.38 76.15 389.61 79.59C386.679 83.1605 383.951 86.8931 381.44 90.77C380.13 92.77 378.93 94.91 377.71 97.08L374 103.68C369.246 112.028 364.963 120.634 361.17 129.46" fill="#363636"/>
<path d="M381.191 90.5204C381.106 90.119 381.059 89.7105 381.051 89.3004C380.981 88.5104 380.931 87.3704 380.881 85.9604C380.791 83.1404 380.791 79.2404 380.811 74.9604C380.831 70.6804 380.811 66.7704 380.641 63.9604C380.571 62.5504 380.511 61.4104 380.451 60.6304C380.401 60.2219 380.401 59.8089 380.451 59.4004C380.562 59.7958 380.636 60.2009 380.671 60.6104C380.791 61.3904 380.911 62.5304 381.021 63.9304C381.251 66.7504 381.361 70.6504 381.341 74.9304C381.321 79.2104 381.291 83.0104 381.271 85.9304V89.2704C381.296 89.6888 381.269 90.1087 381.191 90.5204V90.5204Z" fill="#363636"/>
<path d="M417.79 87.6804C417.308 87.7209 416.823 87.7209 416.34 87.6804C415.41 87.6804 414.06 87.6804 412.4 87.6804C409.08 87.6804 404.49 87.8404 399.4 88.2404C394.31 88.6404 389.78 89.2404 386.49 89.7204C384.84 89.9604 383.49 90.1904 382.6 90.3404C382.127 90.4474 381.645 90.5143 381.16 90.5404C381.612 90.3596 382.081 90.2256 382.56 90.1404C383.47 89.9304 384.79 89.6404 386.43 89.3504C389.72 88.7604 394.29 88.1304 399.36 87.7204C403.684 87.3647 408.023 87.2279 412.36 87.3104C414.02 87.3104 415.36 87.4304 416.3 87.5104C416.801 87.5173 417.3 87.5743 417.79 87.6804V87.6804Z" fill="#363636"/>
<path d="M361.27 128.69C361.182 128.547 361.115 128.392 361.07 128.23L360.6 126.87C360.19 125.68 359.6 123.95 359.01 121.8C357.72 117.5 356.13 111.51 354.46 104.88C352.79 98.2502 351.26 92.2502 350.06 87.9302L348.63 82.8202C348.48 82.2702 348.35 81.8202 348.25 81.4302C348.194 81.2691 348.16 81.1007 348.15 80.9302C348.229 81.0815 348.296 81.2386 348.35 81.4002C348.47 81.7702 348.63 82.2202 348.82 82.7602C349.23 83.9502 349.77 85.6802 350.41 87.8302C351.7 92.1202 353.29 98.1102 354.96 104.75C356.63 111.39 358.16 117.38 359.36 121.75L360.79 126.86C360.94 127.41 361.07 127.86 361.17 128.25C361.222 128.392 361.255 128.54 361.27 128.69Z" fill="#363636"/>
<path d="M410.591 118.47C410.437 118.546 410.271 118.593 410.101 118.61L408.671 118.93L403.381 120.03C398.921 120.97 392.781 122.32 385.991 123.84C379.201 125.36 372.991 126.65 368.551 127.49C366.311 127.92 364.491 128.24 363.231 128.49L361.781 128.7C361.612 128.729 361.439 128.729 361.271 128.7C361.43 128.641 361.594 128.594 361.761 128.56L363.201 128.25L368.481 127.14C372.941 126.21 379.091 124.85 385.881 123.34C392.671 121.83 398.831 120.52 403.311 119.68C405.551 119.26 407.371 118.94 408.631 118.74L410.081 118.52C410.248 118.482 410.419 118.465 410.591 118.47V118.47Z" fill="#363636"/>
<path d="M473.37 465.82C473.37 465.97 373.37 466.09 250.01 466.09C126.65 466.09 26.6299 466 26.6299 465.82C26.6299 465.64 126.63 465.56 250.01 465.56C373.39 465.56 473.37 465.68 473.37 465.82Z" fill="#263238"/>
<path d="M315.7 223.46C316.247 214.2 316.8 204.94 317.36 195.68C317.43 194.56 317.6 193.27 318.56 192.68C319.028 192.496 319.531 192.418 320.033 192.452C320.534 192.487 321.022 192.633 321.46 192.88C337.88 199.49 349.93 217.81 351.37 235.44" fill="#BE185D"/>
<g opacity="0.3">
<path opacity="0.3" d="M321.279 202.28C325.126 204.8 328.337 208.176 330.661 212.144C332.986 216.111 334.361 220.563 334.679 225.15C334.862 226.258 334.626 227.395 334.019 228.34C333.708 228.679 333.329 228.949 332.907 229.133C332.485 229.318 332.03 229.412 331.569 229.41C330.647 229.4 329.731 229.259 328.849 228.99C326.639 228.42 324.309 227.8 322.669 226.2C321.17 224.611 320.312 222.524 320.259 220.34C320.22 218.175 320.441 216.012 320.919 213.9L323.719 218.68L320.719 203.2C320.672 203.064 320.655 202.92 320.669 202.776C320.683 202.633 320.727 202.495 320.799 202.37C320.969 202.15 321.449 202.23 321.419 202.51" fill="white"/>
</g>
<path d="M220.51 243.18C211.941 233.006 207.014 220.263 206.51 206.97L215.66 211.28L213.37 208.49C226.722 209.603 239.112 215.886 247.9 226" fill="#BE185D"/>
<g opacity="0.3">
<path opacity="0.3" d="M225.58 239.14C221.987 236.528 218.967 233.207 216.709 229.381C214.45 225.556 213.001 221.308 212.45 216.9C212.38 216.3 212.45 215.51 213.01 215.31C213.219 215.273 213.433 215.284 213.638 215.341C213.842 215.398 214.031 215.5 214.19 215.64L230.7 226.43C229.983 225.4 229.536 224.207 229.4 222.96L236.4 228.09C236.666 228.238 236.9 228.437 237.089 228.675C237.278 228.914 237.417 229.187 237.5 229.48C237.504 229.809 237.428 230.134 237.281 230.428C237.133 230.722 236.917 230.977 236.65 231.17C235.484 232.223 234.065 232.955 232.531 233.295C230.997 233.635 229.402 233.571 227.9 233.11L230.9 235.72C230.007 236.297 229.006 236.688 227.957 236.868C226.909 237.048 225.835 237.015 224.8 236.77C224.699 237.263 224.748 237.775 224.94 238.24C225.133 238.706 225.46 239.102 225.88 239.38" fill="white"/>
</g>
<path d="M407 330.45C407 330.45 419.8 343.68 425.62 342.58C425.62 342.58 405.4 321.07 396.9 301.22C392.84 291.833 388.003 282.802 382.44 274.22C386.27 267.62 389.68 260.15 391.24 252.6C386.941 257.586 382.04 262.02 376.65 265.8C376.21 265.18 375.76 264.57 375.3 263.95C379.823 259.858 382.838 254.363 383.86 248.35L363.65 247.48C364.283 246.569 364.854 245.617 365.36 244.63C355.432 236.097 344.316 229.053 332.36 223.72C309.11 210.49 257.36 206.12 232.16 227.63C209.59 240.79 203.54 257.63 185.76 261.8L175.22 260.65C175.22 260.65 171.12 282.65 184.59 292.48L174.59 290.16C174.59 290.16 176.43 298.92 186.27 308.58L180.13 307.83C180.13 307.83 182.79 321.61 191.29 324.92C191.29 324.92 178.01 326.58 174.29 321.61C174.29 321.61 169.87 342.21 189.98 349.98C189.98 349.98 129.72 357.04 146.66 430.81C150.66 448.04 174.41 460.44 201.76 466.43L398.76 465.66C410.76 461.74 425.08 421.98 425.61 405.99C426.14 390 418.18 359.11 418.18 359.11L425.64 369.04L407 330.45Z" fill="#BE185D"/>
<path d="M181.84 361.19C170.53 360.51 159.42 369.3 157.49 380.47C164.849 375.589 173.251 372.507 182.02 371.47C178.566 374.647 176.16 378.798 175.118 383.373C174.077 387.948 174.451 392.732 176.19 397.09C177.648 393.195 179.882 389.636 182.756 386.63C185.63 383.623 189.084 381.232 192.91 379.6C190.297 382.752 188.541 386.525 187.812 390.554C187.084 394.584 187.407 398.733 188.75 402.6" fill="#BE185D"/>
<path d="M188.75 402.62C188.682 402.489 188.629 402.352 188.59 402.21C188.5 401.94 188.34 401.54 188.18 401.01C187.74 399.436 187.465 397.821 187.36 396.19C187.206 393.612 187.466 391.026 188.13 388.53C188.999 385.228 190.579 382.156 192.76 379.53L192.99 379.84C189.201 381.476 185.781 383.86 182.934 386.848C180.087 389.836 177.872 393.367 176.42 397.23L176.2 397.83L175.96 397.24C174.751 394.197 174.192 390.935 174.317 387.663C174.443 384.391 175.251 381.181 176.69 378.24C177.957 375.642 179.708 373.311 181.85 371.37L182.05 371.82C173.323 372.849 164.955 375.897 157.61 380.72L157.17 381.01L157.27 380.49C157.714 378.077 158.559 375.754 159.77 373.62C160.843 371.686 162.19 369.918 163.77 368.37C166.294 365.816 169.345 363.843 172.71 362.59C174.862 361.784 177.125 361.312 179.42 361.19C180.22 361.19 180.83 361.19 181.23 361.19H181.7H181.85H181.7H181.23C180.82 361.19 180.23 361.19 179.43 361.19C177.158 361.364 174.924 361.873 172.8 362.7C169.492 363.973 166.5 365.948 164.03 368.49C162.491 370.024 161.181 371.772 160.14 373.68C158.967 375.781 158.149 378.062 157.72 380.43L157.37 380.2C164.765 375.319 173.2 372.237 182 371.2L182.81 371.11L182.2 371.65C180.124 373.55 178.427 375.827 177.2 378.36C175.784 381.24 174.987 384.385 174.86 387.592C174.732 390.798 175.277 393.996 176.46 396.98H176C177.584 392.792 180.053 388.995 183.24 385.85C186.013 383.106 189.285 380.917 192.88 379.4L193.64 379.08L193.11 379.71C190.945 382.287 189.366 385.303 188.48 388.55C187.804 391.014 187.517 393.568 187.63 396.12C187.708 397.737 187.949 399.342 188.35 400.91C188.48 401.45 188.62 401.86 188.69 402.13C188.726 402.291 188.746 402.455 188.75 402.62V402.62Z" fill="#263238"/>
<path d="M388.33 392.22C394.435 390.928 400.799 391.779 406.351 394.63C411.902 397.48 416.302 402.156 418.81 407.87" fill="#BE185D"/>
<path d="M418.81 407.87C418.71 407.92 417.94 405.97 415.99 403.26C413.449 399.727 410.105 396.848 406.233 394.861C402.361 392.874 398.072 391.835 393.72 391.83C390.38 391.83 388.34 392.33 388.33 392.22C388.786 392.054 389.259 391.937 389.74 391.87C391.059 391.622 392.398 391.488 393.74 391.47C398.17 391.37 402.555 392.377 406.497 394.399C410.44 396.421 413.816 399.394 416.32 403.05C417.081 404.146 417.75 405.303 418.32 406.51C418.535 406.943 418.699 407.4 418.81 407.87V407.87Z" fill="#263238"/>
<g opacity="0.3">
<path opacity="0.3" d="M318.87 408.84C311.61 410 302.37 415.49 299 422C298.28 423.39 298.94 423.58 299 425.14C299.001 425.926 299.223 426.696 299.64 427.363C300.057 428.029 300.653 428.565 301.36 428.91C301.718 429.055 302.103 429.124 302.489 429.111C302.876 429.099 303.255 429.005 303.603 428.836C303.951 428.667 304.26 428.427 304.509 428.132C304.758 427.836 304.942 427.491 305.05 427.12C304.183 432.448 305.346 437.908 308.31 442.42C310.352 441.269 311.998 439.525 313.03 437.42C312.84 441.327 313.452 445.231 314.828 448.892C316.203 452.554 318.314 455.895 321.03 458.71L317.49 444.9C316.22 439.9 314.99 435.65 315.33 430.52C315.69 425.04 318.95 420.42 321.48 415.88C318 417.39 313.97 424.23 310.54 428.4C310.334 424.771 310.956 421.143 312.357 417.789C313.758 414.435 315.903 411.444 318.63 409.04" fill="black"/>
</g>
<path d="M317.51 445.06C317.395 444.874 317.302 444.676 317.23 444.47C317.08 444.07 316.79 443.47 316.55 442.7C315.8 440.455 315.346 438.122 315.2 435.76C314.963 432.164 315.387 428.554 316.45 425.11C317.758 420.733 320.093 416.732 323.26 413.44L323.61 413.8C320.687 416.42 317.913 419.201 315.3 422.13C313.612 424.056 312.121 426.147 310.85 428.37L310.46 429.06L310.37 428.28C309.928 424.156 310.677 419.991 312.53 416.28C314.064 413.135 316.343 410.413 319.17 408.35L319.36 408.69C317.373 409.43 315.551 410.555 314 412C312.83 413.085 311.82 414.331 311 415.7C310.48 416.572 310.032 417.485 309.66 418.43C309.553 418.771 309.427 419.105 309.28 419.43C309.269 419.344 309.269 419.256 309.28 419.17C309.33 418.99 309.39 418.73 309.5 418.4C309.829 417.424 310.255 416.482 310.77 415.59C311.58 414.179 312.591 412.892 313.77 411.77C315.34 410.28 317.188 409.114 319.21 408.34L320.55 407.83L319.39 408.68C316.663 410.735 314.471 413.418 313 416.5C311.219 420.134 310.502 424.196 310.93 428.22L310.45 428.12C311.739 425.868 313.246 423.747 314.95 421.79C317.578 418.845 320.372 416.054 323.32 413.43L323.67 413.79C320.549 417.019 318.233 420.939 316.91 425.23C315.836 428.625 315.382 432.185 315.57 435.74C315.686 438.083 316.085 440.403 316.76 442.65C316.98 443.44 317.24 444.02 317.36 444.43C317.423 444.637 317.473 444.847 317.51 445.06Z" fill="#263238"/>
<path d="M198.859 444C202.787 448.358 207.956 451.408 213.669 452.74C213.98 452.864 214.317 452.906 214.649 452.86C214.98 452.814 215.294 452.684 215.559 452.48C216.139 451.84 215.659 450.83 215.179 450.12L208.829 440.74C213.35 444.313 218.71 446.668 224.399 447.58C225.349 447.73 226.519 447.73 226.999 446.91C227.136 446.549 227.187 446.162 227.147 445.778C227.107 445.394 226.978 445.025 226.769 444.7C225.769 442.56 224.769 440.45 223.589 438.39" fill="#BE185D"/>
<path d="M223.59 438.35C223.712 438.504 223.816 438.672 223.9 438.85L224.7 440.35C225.06 441.02 225.47 441.82 225.95 442.73C226.203 443.197 226.463 443.697 226.73 444.23C227.063 444.791 227.277 445.413 227.36 446.06C227.388 446.447 227.274 446.831 227.04 447.14C226.783 447.446 226.431 447.657 226.04 447.74C225.267 447.858 224.478 447.821 223.72 447.63C222.067 447.346 220.439 446.935 218.85 446.4C215.168 445.171 211.728 443.314 208.68 440.91L209.06 440.56L210.16 442.19L213.7 447.43L215.39 449.92C215.69 450.347 215.91 450.825 216.04 451.33C216.116 451.608 216.102 451.903 216 452.173C215.897 452.443 215.712 452.673 215.47 452.83C215 453.068 214.459 453.125 213.95 452.99C213.48 452.91 213.06 452.77 212.62 452.67C211.75 452.42 210.92 452.16 210.14 451.86C208.68 451.312 207.269 450.643 205.92 449.86C203.964 448.736 202.154 447.376 200.53 445.81C199.96 445.25 199.53 444.81 199.27 444.48C199.119 444.325 198.985 444.154 198.87 443.97C199.045 444.095 199.206 444.24 199.35 444.4C199.64 444.7 200.08 445.13 200.67 445.66C202.329 447.152 204.151 448.454 206.1 449.54C207.443 450.291 208.844 450.933 210.29 451.46C211.07 451.75 211.89 452 212.74 452.24C213.59 452.48 214.54 452.81 215.22 452.43C215.379 452.324 215.498 452.168 215.559 451.988C215.621 451.807 215.621 451.611 215.56 451.43C215.442 450.99 215.242 450.576 214.97 450.21C214.42 449.4 213.86 448.57 213.28 447.73C212.133 446.03 210.95 444.283 209.73 442.49L208.63 440.86L207.63 439.46L209 440.5C213.313 443.912 218.393 446.218 223.8 447.22C224.504 447.408 225.238 447.455 225.96 447.36C226.265 447.32 226.543 447.166 226.738 446.928C226.933 446.69 227.031 446.387 227.01 446.08C226.941 445.475 226.751 444.89 226.45 444.36C226.19 443.83 225.94 443.36 225.71 442.85L224.54 440.44L223.82 438.9C223.719 438.728 223.641 438.543 223.59 438.35Z" fill="#263238"/>
<g opacity="0.3">
<path opacity="0.3" d="M223.53 381.78C225.74 385.51 228.975 388.526 232.85 390.47C232.629 388.416 231.776 386.48 230.41 384.93C234.63 388.95 239.63 392.06 245.1 394.07C242.771 395.107 240.228 395.576 237.682 395.438C235.136 395.3 232.66 394.559 230.456 393.275C228.253 391.992 226.386 390.204 225.01 388.057C223.634 385.911 222.787 383.468 222.54 380.93" fill="black"/>
</g>
<g opacity="0.3">
<path opacity="0.3" d="M196.77 316.61C204.71 331.88 230.39 339.42 250.53 339.75C256.75 339.84 265.53 344.44 271.69 343.84C285.52 342.51 296.75 335.06 310.61 333.84C319.24 333.11 327.92 332.84 336.45 331.39C344.98 329.94 344.59 328.93 351.37 323.54C358.15 318.15 365.48 312.81 365.37 304.15C352.63 319.75 340.04 324.58 320.43 329.15C300.82 333.72 280.43 333.62 260.32 332.69C238.19 331.69 214.96 329.25 196.77 316.6" fill="black"/>
</g>
<path d="M265.089 199.49C265.179 199.49 265.259 200.62 265.559 202.41C265.956 204.74 266.592 207.022 267.459 209.22C268.347 211.414 269.456 213.512 270.769 215.48C271.368 216.264 271.925 217.079 272.439 217.92C272.439 217.92 272.209 217.75 271.859 217.37C271.361 216.84 270.897 216.279 270.469 215.69C269.047 213.756 267.874 211.649 266.979 209.42C266.083 207.175 265.484 204.821 265.199 202.42C265.105 201.7 265.052 200.976 265.039 200.25C265.019 199.996 265.036 199.74 265.089 199.49V199.49Z" fill="#BE185D"/>
<path d="M271.62 197C271.71 197 271.31 198 270.92 199.67C270.427 201.826 270.262 204.045 270.43 206.25C270.611 208.452 271.126 210.614 271.96 212.66C272.6 214.24 273.15 215.15 273.07 215.19C272.99 215.23 272.88 215 272.61 214.6C272.234 214.028 271.9 213.43 271.61 212.81C269.691 208.667 269.318 203.974 270.56 199.58C270.738 198.923 270.969 198.281 271.25 197.66C271.46 197.18 271.59 196.94 271.62 197Z" fill="#BE185D"/>
<path d="M149.229 363.2C149.348 363.056 149.482 362.925 149.63 362.81C149.9 362.57 150.289 362.19 150.839 361.81C152.376 360.589 154 359.483 155.699 358.5C161.344 355.302 167.486 353.077 173.869 351.92C180.234 350.761 186.682 350.119 193.149 350C195.629 349.94 197.629 349.92 199.009 349.92H200.609C200.796 349.904 200.983 349.904 201.169 349.92C200.986 349.966 200.798 349.989 200.609 349.99L199.02 350.07L193.16 350.32C186.723 350.525 180.31 351.194 173.969 352.32C167.64 353.476 161.534 355.63 155.88 358.7C154.182 359.655 152.542 360.711 150.969 361.86C149.859 362.75 149.259 363.23 149.229 363.2Z" fill="#BE185D"/>
<path d="M292.579 201.34C292.579 201.43 290.869 200.86 288.089 200.18C286.473 199.782 284.814 199.584 283.149 199.59C281.127 199.604 279.146 200.167 277.419 201.22C276.542 201.766 275.779 202.476 275.169 203.31C274.622 204.099 274.237 204.99 274.039 205.93C273.753 207.559 273.825 209.231 274.249 210.83C274.939 213.59 275.679 215.23 275.579 215.27C275.352 214.916 275.168 214.537 275.029 214.14C274.576 213.094 274.195 212.018 273.889 210.92C273.402 209.272 273.292 207.536 273.569 205.84C273.765 204.829 274.167 203.869 274.749 203.02C275.394 202.123 276.205 201.359 277.139 200.77C278.948 199.674 281.025 199.1 283.139 199.11C284.831 199.126 286.512 199.369 288.139 199.83C289.529 200.2 290.629 200.58 291.389 200.83C291.802 200.96 292.201 201.13 292.579 201.34Z" fill="#BE185D"/>
<path d="M442.61 451.94C441.53 444.76 438.01 437.69 432 433.6C425.99 429.51 417.34 429.03 411.62 433.52L387.88 465.62L438.42 465.83C441.24 463.22 443.18 455.74 442.61 451.94Z" fill="#BE185D"/>
<g opacity="0.3">
<path opacity="0.3" d="M408.999 465.16C413.269 463.38 416.419 459.55 418.359 455.35C420.299 451.15 421.149 446.55 421.999 442C422.699 438.23 423.359 434.16 421.719 430.68C421.328 430.659 420.938 430.74 420.587 430.915C420.236 431.091 419.937 431.354 419.719 431.68C419.281 432.343 418.959 433.078 418.769 433.85C414.859 446.19 408.829 456.85 398.979 465.2" fill="black"/>
</g>
<g opacity="0.3">
<path opacity="0.3" d="M258.88 214.41C263.88 228.82 264.51 244.41 263.97 259.6C263.7 267.18 263.13 274.84 260.76 282.05C258.39 289.26 254.04 296.05 247.58 300.05C241.48 303.82 233.94 304.81 226.82 303.87C219.7 302.93 212.94 300.2 206.53 296.98C199.21 293.3 192.16 288.9 186.48 282.98C180.8 277.06 176.14 268.79 175.2 260.66L185.74 261.81C185.74 261.81 193.85 260.95 206.46 248.75C220.24 235.43 222.75 233.8 233.07 226.86C241.074 221.567 249.756 217.379 258.88 214.41V214.41Z" fill="white"/>
</g>
<g opacity="0.3">
<path opacity="0.3" d="M302.44 303.23C304.434 302.106 306.74 301.665 309.008 301.973C311.275 302.282 313.38 303.324 315 304.94C316.604 302.843 318.775 301.249 321.255 300.345C323.736 299.442 326.423 299.266 329 299.84C325.875 301.069 322.965 302.787 320.38 304.93C317.91 307.2 316.13 310.46 316.44 313.8C313.35 310.472 309.797 307.606 305.89 305.29C304.27 304.29 302.14 303.48 300.62 304.6" fill="black"/>
</g>
<path d="M336.88 415.89C331.075 420.057 326.796 426.012 324.699 432.843C322.602 439.674 322.803 447.004 325.27 453.71" fill="#BE185D"/>
<path d="M325.27 453.71C325.187 453.59 325.123 453.459 325.08 453.32C324.98 453.05 324.81 452.67 324.64 452.15C324.152 450.705 323.781 449.224 323.53 447.72C322.656 442.731 322.976 437.606 324.462 432.764C325.948 427.922 328.558 423.5 332.08 419.86C333.132 418.768 334.273 417.765 335.49 416.86C335.91 416.53 336.27 416.3 336.49 416.14C336.71 415.98 336.86 415.91 336.87 415.93C336.466 416.316 336.042 416.68 335.6 417.02C334.448 417.994 333.359 419.039 332.34 420.15C328.936 423.804 326.406 428.183 324.941 432.957C323.475 437.731 323.112 442.776 323.88 447.71C324.102 449.202 324.419 450.678 324.83 452.13C325.012 452.646 325.159 453.174 325.27 453.71V453.71Z" fill="#263238"/>
<path d="M356.77 381.27C360.86 378.13 366.14 374.83 370.77 377.04C372.052 377.743 373.152 378.737 373.981 379.942C374.809 381.148 375.343 382.531 375.54 383.98C375.9 386.882 375.717 389.825 375 392.66C371.642 409.201 364.346 424.688 353.73 437.81C349.88 442.57 344.4 447.39 338.42 446.08C332.84 444.85 329.67 438.47 330 432.76C330.33 427.05 333.21 421.86 335.88 416.76C342.22 404.76 348.38 391.6 356.74 381.23" fill="#BE185D"/>
<path d="M356.77 381.27C356.691 381.401 356.604 381.528 356.51 381.65L355.71 382.72C355 383.66 353.97 385.07 352.71 386.92C349.225 392.194 346.034 397.655 343.15 403.28L337.15 414.92C335.03 419.12 332.36 423.46 330.97 428.54C330.223 431.12 330.083 433.837 330.56 436.48C331.063 439.231 332.425 441.752 334.45 443.68C335.5 444.625 336.757 445.311 338.12 445.68C339.517 446.041 340.977 446.079 342.39 445.79C345.282 445.044 347.921 443.535 350.03 441.42C352.188 439.332 354.153 437.052 355.9 434.61C357.7 432.25 359.32 429.81 360.9 427.39C366.501 418.448 370.737 408.721 373.47 398.53C374.07 396.263 374.584 394.057 375.01 391.91C375.463 389.876 375.667 387.794 375.62 385.71C375.5 381.78 373.44 378.21 370.51 377.02C369.164 376.451 367.683 376.274 366.24 376.51C365.024 376.715 363.84 377.082 362.72 377.6C361.17 378.335 359.688 379.205 358.29 380.2L357.19 380.98C356.95 381.15 356.81 381.23 356.81 381.23L357.16 380.94C357.4 380.74 357.75 380.47 358.23 380.12C359.606 379.08 361.08 378.176 362.63 377.42C363.76 376.869 364.962 376.482 366.2 376.27C367.805 375.974 369.462 376.192 370.936 376.892C372.41 377.592 373.626 378.739 374.41 380.17C375.377 381.854 375.916 383.749 375.98 385.69C376.049 387.802 375.857 389.915 375.41 391.98C374.98 394.14 374.48 396.36 373.89 398.64C371.177 408.879 366.947 418.654 361.34 427.64C359.78 430.08 358.15 432.52 356.34 434.9C354.575 437.37 352.59 439.676 350.41 441.79C348.233 443.97 345.507 445.522 342.52 446.28C341.03 446.583 339.49 446.538 338.02 446.15C336.575 445.751 335.245 445.014 334.14 444C332.046 441.995 330.645 439.375 330.14 436.52C329.648 433.804 329.795 431.01 330.57 428.36C332 423.18 334.7 418.84 336.82 414.66C338.94 410.48 341.04 406.6 342.9 403.05C345.816 397.43 349.062 391.987 352.62 386.75C353.9 384.91 354.96 383.52 355.69 382.6L356.54 381.6C356.612 381.487 356.689 381.377 356.77 381.27V381.27Z" fill="#263238"/>
<g opacity="0.3">
<path opacity="0.3" d="M357.27 395.53V395.58C358.27 392.76 360.4 391.95 362.69 391.12C364.98 390.29 367.75 390.38 369.59 391.98C371.71 393.82 371.98 397.06 371.41 399.81C371.275 400.782 370.877 401.698 370.26 402.46C369.94 402.83 369.511 403.089 369.034 403.199C368.558 403.308 368.059 403.263 367.61 403.07C366.61 402.52 366.3 401.07 365.24 400.63C364.18 400.19 362.78 401.18 361.5 401.5C360.624 401.669 359.717 401.531 358.931 401.108C358.146 400.685 357.531 400.004 357.19 399.18C356.96 398.597 356.849 397.974 356.862 397.347C356.876 396.72 357.015 396.103 357.27 395.53V395.53Z" fill="black"/>
</g>
<g opacity="0.3">
<path opacity="0.3" d="M361.63 381.45C362.143 381.679 362.572 382.064 362.854 382.551C363.136 383.038 363.257 383.601 363.2 384.16C363.15 385.416 362.876 386.652 362.39 387.81C362.04 388.81 361.45 389.92 360.39 389.96C360.092 389.952 359.802 389.868 359.546 389.716C359.29 389.563 359.078 389.348 358.93 389.09C358.643 388.568 358.482 387.986 358.46 387.39C358.36 386.027 358.572 384.659 359.08 383.39C359.298 382.729 359.709 382.147 360.26 381.72C360.537 381.51 360.876 381.396 361.225 381.396C361.573 381.396 361.912 381.51 362.19 381.72" fill="black"/>
</g>
<g opacity="0.3">
<path opacity="0.3" d="M373.609 383.91C374.123 384.139 374.552 384.524 374.834 385.01C375.115 385.497 375.237 386.06 375.179 386.62C375.129 387.875 374.854 389.111 374.369 390.27C374.019 391.27 373.419 392.38 372.369 392.42C372.072 392.413 371.781 392.329 371.525 392.176C371.269 392.024 371.057 391.808 370.909 391.55C370.613 391.031 370.452 390.447 370.439 389.85C370.342 388.488 370.55 387.121 371.049 385.85C371.272 385.188 371.686 384.606 372.239 384.18C372.517 383.968 372.856 383.854 373.204 383.854C373.553 383.854 373.892 383.968 374.169 384.18" fill="black"/>
</g>
<g opacity="0.3">
<path opacity="0.3" d="M368.55 379.33C369.062 379.564 369.488 379.952 369.769 380.44C370.051 380.927 370.173 381.49 370.12 382.05C370.065 383.302 369.791 384.534 369.31 385.69C368.95 386.69 368.36 387.81 367.31 387.84C367.012 387.833 366.722 387.749 366.466 387.597C366.21 387.444 365.998 387.229 365.85 386.97C365.562 386.452 365.404 385.872 365.39 385.28C365.282 383.918 365.491 382.548 366 381.28C366.218 380.615 366.633 380.033 367.19 379.61C367.466 379.401 367.804 379.288 368.15 379.288C368.497 379.288 368.834 379.401 369.11 379.61" fill="black"/>
</g>
<g opacity="0.3">
<path opacity="0.3" d="M364.669 420.21C363.871 426.261 362.225 432.169 359.779 437.76C357.313 443.374 353.542 448.318 348.779 452.18C346.579 453.9 343.999 455.38 341.209 455.45C337.259 455.55 333.659 452.72 331.879 449.19C330.099 445.66 329.879 441.56 330.059 437.62C331.969 440.81 334.119 444.21 337.579 445.62C339.108 446.133 340.73 446.309 342.334 446.136C343.937 445.963 345.484 445.446 346.869 444.62C349.629 442.948 352.043 440.762 353.979 438.18C358.264 432.95 361.786 427.139 364.439 420.92" fill="black"/>
</g>
<path d="M140.7 382.07C135.78 380.56 129.7 379.31 126.08 383.01C125.131 384.123 124.456 385.442 124.109 386.863C123.762 388.283 123.752 389.765 124.08 391.19C124.755 394.037 125.956 396.733 127.62 399.14C136.558 413.456 148.81 425.413 163.34 434C168.61 437.1 175.43 439.7 180.57 436.37C185.38 433.27 186.1 426.18 183.8 420.95C181.5 415.72 177 411.83 172.69 408C162.55 399 152.17 388.82 140.69 382" fill="#BE185D"/>
<path d="M140.699 382.07C140.699 382.07 140.839 382.13 141.109 382.28L142.259 382.96C143.259 383.57 144.75 384.5 146.6 385.77C151.765 389.433 156.71 393.396 161.41 397.64L171.179 406.38C174.629 409.55 178.679 412.67 181.829 417.02C183.486 419.229 184.606 421.793 185.1 424.51C185.613 427.368 185.21 430.315 183.949 432.93C183.265 434.262 182.279 435.416 181.07 436.3C179.826 437.183 178.396 437.764 176.889 438C173.814 438.346 170.703 437.848 167.889 436.56C165.099 435.343 162.422 433.881 159.889 432.19C157.369 430.59 154.979 428.87 152.669 427.14C148.286 423.752 144.174 420.027 140.369 416C136.909 412.353 133.714 408.463 130.809 404.36C129.459 402.43 128.209 400.52 127.059 398.65C125.914 396.873 124.99 394.962 124.309 392.96C123.691 391.12 123.533 389.156 123.849 387.24C124.083 385.625 124.819 384.125 125.954 382.953C127.088 381.781 128.563 380.996 130.169 380.71C131.406 380.481 132.667 380.42 133.919 380.53C135.637 380.702 137.335 381.037 138.99 381.53C139.56 381.69 139.989 381.82 140.269 381.92L140.699 382.08L140.259 381.97L138.96 381.63C137.301 381.189 135.609 380.891 133.899 380.74C132.668 380.65 131.431 380.724 130.219 380.96C128.782 381.251 127.457 381.945 126.399 382.96C124.069 385.11 123.399 389.17 124.659 392.89C125.344 394.857 126.264 396.734 127.399 398.48C128.559 400.34 129.813 402.23 131.159 404.15C137.293 412.735 144.67 420.359 153.049 426.77C155.349 428.5 157.73 430.21 160.24 431.77C162.734 433.445 165.374 434.891 168.13 436.09C170.842 437.338 173.841 437.829 176.809 437.51C178.25 437.291 179.619 436.74 180.809 435.9C181.957 435.068 182.889 433.975 183.529 432.71C184.749 430.196 185.141 427.361 184.649 424.61C184.176 421.966 183.09 419.47 181.479 417.32C178.399 413.04 174.379 409.91 170.929 406.72L161.21 397.93C156.539 393.661 151.634 389.655 146.519 385.93C144.699 384.63 143.239 383.68 142.249 383.04L141.119 382.32L140.699 382.07Z" fill="#263238"/>
<g opacity="0.3">
<path opacity="0.3" d="M145.24 395.59C143.31 393.3 141.04 393.28 138.6 393.31C136.16 393.34 133.6 394.4 132.44 396.53C131.1 399.01 131.98 402.13 133.44 404.53C133.898 405.394 134.592 406.112 135.44 406.6C135.866 406.839 136.358 406.934 136.843 406.871C137.328 406.808 137.779 406.59 138.13 406.25C138.88 405.38 138.67 403.93 139.49 403.13C140.31 402.33 142 402.78 143.3 402.64C144.179 402.491 144.98 402.044 145.569 401.374C146.157 400.704 146.496 399.851 146.53 398.96C146.557 397.711 146.094 396.502 145.24 395.59V395.59Z" fill="black"/>
</g>
<g opacity="0.3">
<path opacity="0.3" d="M136.21 383.93C135.809 384.327 135.543 384.84 135.45 385.396C135.357 385.952 135.441 386.524 135.69 387.03C136.167 388.183 136.844 389.243 137.69 390.16C138.36 390.95 139.32 391.81 140.3 391.48C140.576 391.368 140.819 391.187 141.005 390.954C141.19 390.721 141.313 390.444 141.36 390.15C141.45 389.563 141.399 388.963 141.21 388.4C140.818 387.085 140.135 385.874 139.21 384.86C138.773 384.313 138.18 383.912 137.51 383.71C137.175 383.618 136.819 383.637 136.496 383.766C136.173 383.894 135.901 384.123 135.72 384.42" fill="black"/>
</g>
<g opacity="0.3">
<path opacity="0.3" d="M125.859 390.44C125.459 390.835 125.194 391.347 125.101 391.901C125.007 392.456 125.091 393.026 125.339 393.53C125.815 394.684 126.492 395.743 127.339 396.66C128.019 397.45 128.969 398.31 129.959 397.98C130.234 397.867 130.476 397.685 130.662 397.452C130.847 397.22 130.97 396.944 131.019 396.65C131.106 396.062 131.051 395.462 130.859 394.9C130.471 393.583 129.787 392.372 128.859 391.36C128.422 390.813 127.829 390.412 127.159 390.21C126.824 390.118 126.468 390.137 126.146 390.266C125.823 390.394 125.55 390.623 125.369 390.92" fill="black"/>
</g>
<g opacity="0.3">
<path opacity="0.3" d="M129 384.38C128.6 384.775 128.335 385.286 128.241 385.841C128.148 386.396 128.231 386.965 128.48 387.47C128.956 388.624 129.633 389.683 130.48 390.6C131.16 391.39 132.11 392.25 133.1 391.92C133.376 391.807 133.618 391.626 133.803 391.393C133.989 391.16 134.112 390.884 134.16 390.59C134.247 390.002 134.192 389.402 134 388.84C133.612 387.523 132.928 386.312 132 385.3C131.563 384.753 130.97 384.352 130.3 384.15C129.965 384.058 129.609 384.077 129.286 384.206C128.963 384.334 128.691 384.563 128.51 384.86" fill="black"/>
</g>
<g opacity="0.3">
<path opacity="0.3" d="M147 421.3C149.857 426.676 153.456 431.625 157.69 436C161.947 440.403 167.197 443.723 173 445.68C175.66 446.53 178.59 447.01 181.23 446.1C184.97 444.81 187.34 440.9 187.77 436.97C188.2 433.04 187 429.11 185.42 425.49C184.75 429.15 183.93 433.09 181.17 435.59C179.928 436.607 178.48 437.343 176.927 437.747C175.373 438.151 173.75 438.213 172.17 437.93C168.998 437.334 165.97 436.136 163.25 434.4C157.409 430.997 152.077 426.789 147.41 421.9" fill="black"/>
</g>
<g opacity="0.3">
<path opacity="0.3" d="M143.28 415.87C142.99 416.27 142.7 416.68 142.42 417.09C143.655 415.098 145.281 413.377 147.199 412.031C149.118 410.685 151.29 409.742 153.583 409.259C155.877 408.776 158.245 408.763 160.543 409.221C162.842 409.678 165.024 410.597 166.958 411.922C168.891 413.246 170.536 414.949 171.793 416.928C173.05 418.906 173.893 421.118 174.271 423.432C174.648 425.745 174.553 428.111 173.991 430.386C173.429 432.661 172.411 434.799 171 436.67C159.757 432.074 149.58 425.215 141.1 416.52" fill="white"/>
</g>
<path d="M425.6 406C425.608 406.224 425.591 406.449 425.55 406.67C425.48 407.17 425.39 407.8 425.29 408.59C425.06 410.26 424.67 412.66 424.12 415.59C422.76 423.327 420.711 430.927 418 438.3C416.442 442.345 414.559 446.258 412.37 450C411.86 450.86 411.31 451.66 410.81 452.46L410.05 453.63L409.24 454.72L407.7 456.77C407.17 457.4 406.64 457.99 406.14 458.55C405.64 459.11 405.19 459.68 404.69 460.14L403.31 461.47L402.1 462.62L401 463.49L399.47 464.69C399.301 464.841 399.113 464.969 398.91 465.07C399.061 464.901 399.225 464.744 399.4 464.6L400.87 463.34L401.93 462.44L403.1 461.26L404.45 459.92C404.94 459.45 405.37 458.87 405.86 458.31L407.38 456.52L408.89 454.46L409.68 453.38C409.93 453 410.17 452.61 410.42 452.21C410.92 451.41 411.42 450.61 411.96 449.76C414.09 446.026 415.932 442.134 417.47 438.12C420.18 430.785 422.284 423.239 423.76 415.56C424.35 412.62 424.76 410.23 425.09 408.56C425.23 407.78 425.35 407.15 425.44 406.66C425.477 406.436 425.53 406.216 425.6 406V406Z" fill="#263238"/>
<path d="M195.54 345.34C195.671 345.16 195.826 344.999 196 344.86L197.39 343.56C198 342.99 198.75 342.31 199.65 341.56C200.55 340.81 201.55 339.9 202.71 338.98C205 337.09 207.81 334.98 211.02 332.68C214.23 330.38 217.86 328.09 221.78 325.81C225.7 323.53 229.55 321.57 233.09 319.89C236.63 318.21 239.91 316.89 242.69 315.82C244.07 315.27 245.34 314.82 246.45 314.44C247.56 314.06 248.53 313.73 249.32 313.49L251.15 312.93C251.357 312.853 251.571 312.8 251.79 312.77C251.594 312.873 251.39 312.96 251.18 313.03L249.38 313.68C248.6 313.95 247.65 314.29 246.55 314.68C245.45 315.07 244.19 315.55 242.82 316.12C240.07 317.21 236.82 318.62 233.3 320.29C229.78 321.96 226 324 222 326.24C218 328.48 214.48 330.84 211.25 333.06C208.02 335.28 205.25 337.4 202.9 339.25C201.73 340.15 200.71 341.02 199.8 341.77C198.89 342.52 198.11 343.16 197.49 343.71L196.03 344.94C195.883 345.092 195.718 345.226 195.54 345.34Z" fill="#263238"/>
<path d="M167.39 328.64C167.39 328.64 167.45 328.59 167.57 328.5L168.13 328.12L170.33 326.72C171.28 326.11 172.45 325.38 173.85 324.59C175.25 323.8 176.85 322.84 178.61 321.92L181.41 320.43C182.41 319.92 183.41 319.43 184.5 318.91C186.62 317.84 188.96 316.84 191.4 315.75C196.33 313.67 201.83 311.59 207.73 309.75C213.63 307.91 219.36 306.58 224.61 305.54C227.24 305.07 229.74 304.59 232.1 304.28C233.27 304.12 234.41 303.93 235.5 303.81L238.66 303.46C240.66 303.22 242.49 303.12 244.09 303C245.69 302.88 247.09 302.81 248.21 302.78L250.81 302.71H251.48C251.559 302.695 251.64 302.695 251.72 302.71H251.49L250.81 302.77L248.22 302.94C247.09 303 245.71 303.08 244.12 303.24C242.53 303.4 240.7 303.51 238.7 303.78L235.55 304.16C234.46 304.29 233.33 304.49 232.16 304.66C229.81 304.98 227.32 305.48 224.7 305.96C219.48 307.03 213.77 308.41 207.88 310.2C201.99 311.99 196.51 314.08 191.59 316.13C189.15 317.2 186.81 318.19 184.69 319.24C183.62 319.76 182.57 320.24 181.59 320.73L178.78 322.19C176.98 323.09 175.4 324.01 174 324.78C172.6 325.55 171.4 326.25 170.43 326.83L168.19 328.15L167.6 328.48C167.47 328.62 167.39 328.65 167.39 328.64Z" fill="#263238"/>
<path d="M286.559 295.68C286.619 295.83 284.039 296.92 281.189 298.83C278.339 300.74 276.329 302.69 276.189 302.57C278.921 299.348 282.504 296.96 286.529 295.68H286.559Z" fill="#263238"/>
<path d="M303.48 301.11C303.48 301.21 302 300.54 299.55 299.92C296.358 299.086 293.05 298.782 289.76 299.02C286.468 299.157 283.246 300.014 280.32 301.53C279.155 302.231 278.153 303.172 277.38 304.29C277.482 303.926 277.655 303.586 277.89 303.29C278.497 302.46 279.257 301.754 280.13 301.21C282.31 299.78 285.82 298.79 289.72 298.49C293.067 298.248 296.43 298.607 299.65 299.55C300.621 299.821 301.573 300.155 302.5 300.55C302.846 300.701 303.174 300.888 303.48 301.11Z" fill="#263238"/>
<path d="M270.619 309.45L271.789 312.25C272.135 312.974 272.371 313.746 272.489 314.54C272.546 314.939 272.516 315.345 272.402 315.731C272.288 316.118 272.093 316.475 271.829 316.78C271.379 317.16 270.817 317.383 270.228 317.413C269.639 317.444 269.057 317.281 268.569 316.95C267.622 316.248 266.922 315.265 266.569 314.14C266.149 313.04 265.869 311.88 265.359 310.82C266.008 310.228 266.497 309.483 266.782 308.653C267.067 307.823 267.138 306.935 266.989 306.07C266.989 306.07 267.999 309.27 270.619 309.45Z" fill="#0EA5E9" fill-opacity="0.3"/>
<path d="M254.29 299.25C255.176 297.466 256.424 295.887 257.955 294.613C259.485 293.338 261.265 292.398 263.18 291.85C269.56 290.17 276.18 296.85 276.18 296.85C276.18 296.85 268.47 294.58 268.58 298.41C268.69 302.24 270.96 302.15 268.4 304.67C265.84 307.19 261.45 304.54 260.4 301.57L258.34 298.67L254.29 299.25Z" fill="#263238"/>
<path d="M280.71 303C280.71 303 280.71 303.13 280.76 303.36C280.793 303.709 280.793 304.061 280.76 304.41C280.577 305.691 280.059 306.902 279.26 307.92C278.676 308.693 277.942 309.339 277.101 309.821C276.261 310.302 275.332 310.608 274.37 310.72C273.182 310.811 271.99 310.619 270.89 310.163C269.79 309.706 268.814 308.995 268.04 308.09C267.273 307.21 266.734 306.156 266.47 305.02L266.96 304.88C267.261 305.821 267.342 306.819 267.198 307.796C267.054 308.774 266.689 309.705 266.13 310.52C265.373 311.579 264.303 312.374 263.07 312.792C261.838 313.211 260.505 313.231 259.26 312.85C258.997 312.77 258.743 312.667 258.5 312.54C258.34 312.45 258.26 312.4 258.26 312.38C258.26 312.36 258.63 312.52 259.31 312.68C260.271 312.899 261.269 312.899 262.23 312.68C263.67 312.355 264.933 311.493 265.76 310.27C266.265 309.508 266.591 308.642 266.716 307.737C266.841 306.832 266.76 305.91 266.48 305.04L266.97 304.91C267.225 305.961 267.729 306.935 268.44 307.75C269.16 308.595 270.068 309.261 271.09 309.695C272.112 310.128 273.221 310.319 274.33 310.25C275.235 310.151 276.113 309.874 276.911 309.435C277.709 308.996 278.412 308.403 278.98 307.69C279.774 306.732 280.317 305.591 280.56 304.37C280.69 303.53 280.66 303 280.71 303Z" fill="#263238"/>
<path d="M268.35 292.79C267.688 292.889 267.018 292.919 266.35 292.88C264.732 292.863 263.12 293.072 261.56 293.5C260.019 293.95 258.62 294.79 257.5 295.94C256.67 296.85 256.37 297.58 256.29 297.55C256.422 296.857 256.748 296.215 257.23 295.7C258.321 294.401 259.777 293.46 261.41 293C263.02 292.554 264.694 292.388 266.36 292.51C267.034 292.499 267.705 292.594 268.35 292.79V292.79Z" fill="white"/>
<path d="M270.269 317.64C269.305 316.019 268.577 314.267 268.109 312.44C267.484 310.662 267.121 308.802 267.029 306.92C267.179 306.92 267.709 309.34 268.609 312.29C269.509 315.24 270.409 317.58 270.269 317.64Z" fill="#263238"/>
<path d="M199.069 328.85C199.191 328.721 199.325 328.603 199.469 328.5L200.679 327.56C201.679 326.75 203.309 325.64 205.299 324.34C207.289 323.04 209.709 321.58 212.479 320.08C215.249 318.58 218.369 317.08 221.729 315.71C225.089 314.34 228.359 313.22 231.369 312.31C234.379 311.4 237.139 310.74 239.469 310.31C241.799 309.88 243.699 309.51 245.019 309.31L246.539 309.12C246.715 309.1 246.893 309.1 247.069 309.12C246.904 309.191 246.728 309.239 246.549 309.26L245.049 309.54C243.739 309.76 241.859 310.14 239.549 310.66C237.239 311.18 234.549 311.88 231.549 312.79C228.549 313.7 225.309 314.85 221.959 316.21C218.609 317.57 215.519 319.08 212.739 320.53C209.959 321.98 207.539 323.41 205.529 324.67C203.519 325.93 201.929 326.99 200.839 327.75L199.569 328.6C199.239 328.78 199.079 328.87 199.069 328.85Z" fill="#263238"/>
<path d="M249.177 284.798C252.066 272.683 244.586 260.521 232.472 257.633C220.357 254.745 208.195 262.224 205.307 274.338C202.419 286.453 209.898 298.615 222.012 301.503C234.127 304.391 246.289 296.912 249.177 284.798Z" fill="white"/>
<path d="M249.81 279.6C249.81 290.48 242.46 299.31 236.24 299.31C230.02 299.31 225 290.48 225 279.6C225 268.72 230 259.88 236.28 259.88C242.56 259.88 249.81 268.71 249.81 279.6Z" fill="#263238"/>
<path d="M241.24 272.31C243.372 272.31 245.1 270.582 245.1 268.45C245.1 266.318 243.372 264.59 241.24 264.59C239.108 264.59 237.38 266.318 237.38 268.45C237.38 270.582 239.108 272.31 241.24 272.31Z" fill="white"/>
<path d="M231.26 293.92C231.035 293.631 230.847 293.315 230.7 292.98C230.228 292.095 229.824 291.176 229.49 290.23C228.971 288.832 228.566 287.394 228.28 285.93C227.94 284.136 227.753 282.316 227.72 280.49C227.714 278.66 227.864 276.834 228.17 275.03C228.427 273.562 228.801 272.117 229.29 270.71C229.603 269.759 229.987 268.833 230.44 267.94C230.576 267.585 230.757 267.248 230.98 266.94C231.07 266.94 230.38 268.39 229.64 270.79C229.21 272.192 228.876 273.622 228.64 275.07C228.367 276.847 228.234 278.642 228.24 280.44C228.272 282.237 228.443 284.029 228.75 285.8C229.013 287.247 229.377 288.674 229.84 290.07C230.63 292.49 231.35 293.88 231.26 293.92Z" fill="white"/>
<path d="M221.529 250.88C221.469 251.61 220.629 252.17 219.529 252.69C218.429 253.21 216.939 253.69 215.469 254.36C213.999 255.03 212.709 255.61 211.609 256.11C210.509 256.61 209.609 256.91 208.959 256.52C208.309 256.13 208.229 255.04 208.959 253.59C209.946 251.76 211.552 250.342 213.489 249.59C215.345 248.772 217.416 248.583 219.389 249.05C220.799 249.43 221.589 250.18 221.529 250.88Z" fill="#263238"/>
<path d="M113.91 443L118.98 435.06C143.12 461.58 222.88 493.12 294.29 421.83C324.96 391.21 322.48 339.47 322.48 339.47L316.38 320.31H322.48C322.48 320.31 340.16 352.92 321.65 395.62C321.65 395.62 302.65 446.23 244.48 464.62C152.72 493.6 113.91 443 113.91 443Z" fill="#BE185D"/>
<g opacity="0.7">
<path opacity="0.7" d="M113.91 443L118.98 435.06C143.12 461.58 222.88 493.12 294.29 421.83C324.96 391.21 322.48 339.47 322.48 339.47L316.38 320.31H322.48C322.48 320.31 340.16 352.92 321.65 395.62C321.65 395.62 302.65 446.23 244.48 464.62C152.72 493.6 113.91 443 113.91 443Z" fill="white"/>
</g>
<path d="M112.542 452.702C129.471 435.773 129.471 408.325 112.542 391.396C95.613 374.467 68.1653 374.467 51.2361 391.396C34.3069 408.325 34.3068 435.773 51.2361 452.702C68.1653 469.632 95.613 469.632 112.542 452.702Z" fill="#BE185D"/>
<g opacity="0.7">
<path opacity="0.7" d="M112.542 452.702C129.471 435.773 129.471 408.325 112.542 391.396C95.613 374.467 68.1653 374.467 51.2361 391.396C34.3069 408.325 34.3068 435.773 51.2361 452.702C68.1653 469.632 95.613 469.632 112.542 452.702Z" fill="white"/>
</g>
<path d="M92.2802 379.91C92.2569 380.188 92.2067 380.462 92.1302 380.73C92.0102 381.31 91.8302 382.09 91.6202 383.08C91.5002 383.59 91.3702 384.16 91.2302 384.77C91.0902 385.38 90.8702 386.04 90.6702 386.77C90.2402 388.19 89.8302 389.83 89.1702 391.58L88.1702 394.34C87.8302 395.34 87.4002 396.27 86.9902 397.29C86.2102 399.34 85.1702 401.45 84.1202 403.68C81.7143 408.468 78.9673 413.077 75.9002 417.47C72.7701 421.821 69.3313 425.942 65.6102 429.8C63.8402 431.53 62.2002 433.2 60.5202 434.62C59.7002 435.34 58.9202 436.07 58.1302 436.71L55.8402 438.54C54.4102 439.74 53.0002 440.67 51.8402 441.54C51.2302 441.97 50.6802 442.38 50.1502 442.73L48.6802 443.66L46.6802 444.92C46.4522 445.082 46.2074 445.22 45.9502 445.33C46.1627 445.149 46.3865 444.982 46.6202 444.83L48.6202 443.49L50.0602 442.49C50.5802 442.12 51.1202 441.7 51.7202 441.27C52.9002 440.38 54.2902 439.42 55.7202 438.21L57.9802 436.37C58.7702 435.72 59.5302 434.99 60.3402 434.26C62.0002 432.83 63.6302 431.15 65.3402 429.42C69.006 425.573 72.4009 421.477 75.5002 417.16C78.5549 412.79 81.3016 408.212 83.7202 403.46C84.7802 401.24 85.8202 399.15 86.6202 397.12C87.0402 396.12 87.4802 395.12 87.8302 394.19C88.1802 393.26 88.5102 392.32 88.8302 391.45C89.5102 389.71 89.9502 388.08 90.4002 386.68C90.6102 385.97 90.8302 385.31 91.0002 384.68C91.1702 384.05 91.3002 383.51 91.4302 383C91.6902 382 91.8902 381.25 92.0402 380.68C92.0984 380.417 92.1787 380.16 92.2802 379.91V379.91Z" fill="#BE185D"/>
<path d="M102.53 384.33C102.499 384.625 102.442 384.916 102.36 385.2C102.22 385.81 102.03 386.63 101.78 387.67C101.65 388.21 101.5 388.81 101.34 389.46C101.18 390.11 100.95 390.8 100.72 391.55C100.25 393.04 99.7999 394.78 99.0699 396.61L97.9999 399.52C97.6299 400.52 97.1399 401.52 96.6899 402.62C95.8199 404.77 94.6899 406.98 93.5199 409.31C90.8611 414.318 87.8187 419.112 84.4199 423.65C80.9676 428.14 77.1801 432.362 73.0899 436.28C71.1699 438.05 69.3499 439.75 67.5299 441.19C66.6299 441.92 65.7899 442.67 64.9199 443.3L62.4299 445.15C60.8799 446.36 59.3499 447.3 58.0499 448.15C56.7499 449 55.5999 449.73 54.6499 450.28L52.4499 451.56C52.2001 451.718 51.9395 451.859 51.6699 451.98C51.8999 451.792 52.144 451.621 52.3999 451.47L54.5399 450.11C55.4799 449.53 56.6199 448.82 57.8899 447.91C59.1599 447 60.6799 446.05 62.2199 444.83L64.6699 443C65.5299 442.36 66.3599 441.6 67.2499 440.87C69.0599 439.42 70.8499 437.72 72.7599 435.95C76.805 432.019 80.5614 427.801 83.9999 423.33C87.3794 418.818 90.4146 414.058 93.0799 409.09C94.2599 406.77 95.3999 404.58 96.2899 402.44C96.7399 401.38 97.2899 400.38 97.6099 399.37C97.9299 398.36 98.3599 397.37 98.7099 396.49C99.4599 394.66 99.9299 392.95 100.43 391.49C100.67 390.74 100.92 390.05 101.1 389.41C101.28 388.77 101.43 388.18 101.57 387.64C101.86 386.64 102.08 385.8 102.25 385.2C102.326 384.905 102.419 384.614 102.53 384.33V384.33Z" fill="#BE185D"/>
<path d="M111.999 392.12C111.949 392.412 111.875 392.7 111.779 392.98C111.599 393.59 111.349 394.4 111.039 395.44C110.879 395.97 110.689 396.56 110.499 397.2C110.309 397.84 110.019 398.53 109.749 399.28C109.189 400.75 108.619 402.46 107.749 404.28L106.519 407.15C106.089 408.15 105.569 409.15 105.059 410.21C104.059 412.33 102.839 414.51 101.579 416.82C98.7345 421.757 95.5571 426.495 92.0693 431C88.4973 435.459 84.6214 439.666 80.4693 443.59C78.4693 445.36 76.6893 447.06 74.8393 448.51C73.9293 449.24 73.0793 449.98 72.1993 450.63L69.6893 452.49C68.1093 453.7 66.5793 454.65 65.2693 455.49C64.6093 455.92 63.9993 456.34 63.4193 456.69L61.8293 457.63L59.6093 458.91C59.3556 459.067 59.0917 459.208 58.8193 459.33C59.052 459.141 59.2994 458.97 59.5593 458.82L61.7193 457.46L63.2893 456.46C63.8593 456.1 64.4593 455.67 65.1093 455.23C66.3993 454.32 67.9093 453.36 69.4693 452.13C70.2693 451.53 71.0993 450.91 71.9593 450.25C72.8193 449.59 73.6593 448.85 74.5693 448.11C76.3893 446.66 78.2093 444.95 80.1393 443.19C84.2522 439.259 88.1005 435.059 91.6593 430.62C95.1607 426.14 98.3611 421.433 101.239 416.53C102.509 414.23 103.759 412.08 104.759 409.97C105.269 408.97 105.759 407.97 106.239 406.97C106.719 405.97 107.089 405.02 107.489 404.12C108.329 402.32 108.919 400.62 109.489 399.12C109.779 398.39 110.049 397.71 110.279 397.07C110.509 396.43 110.689 395.85 110.869 395.32C111.219 394.32 111.499 393.5 111.699 392.9C111.781 392.633 111.881 392.373 111.999 392.12V392.12Z" fill="#BE185D"/>
<path d="M123.37 433.25C123.02 433.162 122.684 433.028 122.37 432.85C121.77 432.57 120.9 432.13 119.84 431.58C117.72 430.48 114.84 428.88 111.69 427C108.54 425.12 105.8 423.31 103.83 421.95C102.83 421.27 102.06 420.71 101.52 420.3C101.227 420.113 100.959 419.892 100.72 419.64C101.047 419.766 101.356 419.934 101.64 420.14L104.03 421.64C106.03 422.92 108.84 424.64 111.96 426.55C115.08 428.46 117.96 430.08 120.02 431.26L122.47 432.67C122.796 432.818 123.1 433.014 123.37 433.25V433.25Z" fill="#BE185D"/>
<path d="M125.2 423.87C124.192 423.303 123.223 422.668 122.3 421.97C120.53 420.76 118.07 419.12 115.3 417.42C112.53 415.72 109.92 414.3 108.04 413.26C107 412.745 105.997 412.157 105.04 411.5C105.348 411.571 105.645 411.685 105.92 411.84C106.47 412.08 107.25 412.45 108.21 412.93C110.13 413.93 112.76 415.28 115.57 416.98C118.38 418.68 120.81 420.38 122.57 421.67C123.43 422.32 124.12 422.85 124.57 423.24C125.02 423.63 125.23 423.85 125.2 423.87Z" fill="#BE185D"/>
<path d="M98.4897 461.2C98.3397 461.2 97.9997 453.26 97.7297 443.45C97.4597 433.64 97.3497 425.68 97.4897 425.68C97.6297 425.68 97.9697 433.62 98.2497 443.43C98.5297 453.24 98.6297 461.2 98.4897 461.2Z" fill="#BE185D"/>
<path d="M77.1199 466.17C76.8564 462.867 76.7696 459.552 76.8599 456.24C76.7693 452.928 76.8561 449.613 77.1199 446.31C77.3776 449.613 77.4643 452.928 77.3799 456.24C77.4641 459.552 77.3773 462.867 77.1199 466.17V466.17Z" fill="#BE185D"/>
<path d="M87.6196 465C87.4796 465 87.3996 458.5 87.4596 450.49C87.5196 442.48 87.6696 435.97 87.8196 435.97C87.9696 435.97 88.0296 442.47 87.9796 450.49C87.9296 458.51 87.7596 465 87.6196 465Z" fill="#BE185D"/>
<path d="M65.4594 429.79C65.3794 429.91 59.7194 426.26 52.8294 421.63C45.9394 417 40.3994 413.15 40.4794 413C40.5594 412.85 46.2194 416.53 53.1194 421.16C60.0194 425.79 65.5394 429.67 65.4594 429.79Z" fill="#BE185D"/>
<path d="M57.9099 436C57.6099 435.954 57.3193 435.86 57.0499 435.72C56.5199 435.51 55.7499 435.17 54.8199 434.72C52.4167 433.546 50.0798 432.241 47.8199 430.81C45.1599 429.13 42.8199 427.46 41.1999 426.22C40.2809 425.593 39.4207 424.883 38.6299 424.1C39.6005 424.642 40.5327 425.25 41.4199 425.92C43.1099 427.09 45.4199 428.7 48.0999 430.37C50.7799 432.04 53.2199 433.42 55.0299 434.37C56.021 434.856 56.9827 435.401 57.9099 436V436Z" fill="#BE185D"/>
<path d="M83.9297 403.6C83.4404 403.836 82.9319 404.03 82.4097 404.18C81.8069 404.403 81.1927 404.593 80.5697 404.75C79.8497 404.95 79.0297 405.18 78.1097 405.37C75.952 405.836 73.768 406.17 71.5697 406.37C68.8768 406.61 66.1723 406.693 63.4697 406.62C60.7677 406.523 58.0734 406.272 55.3997 405.87C53.2185 405.534 51.0583 405.073 48.9297 404.49C48.0197 404.26 47.2097 404 46.4997 403.77C45.7897 403.54 45.1697 403.33 44.6897 403.13C44.1688 402.961 43.6636 402.747 43.1797 402.49C43.7144 402.597 44.2395 402.748 44.7497 402.94C45.2497 403.11 45.8597 403.3 46.5797 403.49C47.2997 403.68 48.1097 403.93 49.0197 404.14C50.8397 404.61 53.0197 405.01 55.4697 405.4C58.1228 405.769 60.7929 406.003 63.4697 406.1C66.1382 406.169 68.8085 406.099 71.4697 405.89C73.6609 405.712 75.8408 405.415 77.9997 405C78.9297 404.84 79.7497 404.63 80.4697 404.46C81.1897 404.29 81.8197 404.13 82.3197 403.98C82.8425 403.801 83.3818 403.674 83.9297 403.6V403.6Z" fill="#BE185D"/>
<path d="M88.7198 392.38C88.2489 392.646 87.7573 392.873 87.2498 393.06C86.7698 393.28 86.1698 393.5 85.4698 393.75C84.7698 394 83.9698 394.29 83.0798 394.55C80.9805 395.194 78.8472 395.721 76.6898 396.13C74.0441 396.613 71.3732 396.947 68.6898 397.13C66.0055 397.289 63.3141 397.289 60.6298 397.13C58.4397 396.989 56.2615 396.702 54.1098 396.27C53.1798 396.11 52.3598 395.89 51.6398 395.7C51.0239 395.549 50.4164 395.365 49.8198 395.15C49.2984 394.998 48.7901 394.804 48.2998 394.57C48.8379 394.648 49.367 394.779 49.8798 394.96C50.3698 395.11 50.9898 395.26 51.7098 395.41C52.4298 395.56 53.2498 395.77 54.1698 395.91C56.3172 396.281 58.4841 396.528 60.6598 396.65C63.3258 396.77 65.9963 396.747 68.6598 396.58C71.3215 396.38 73.9715 396.046 76.5998 395.58C79.0098 395.11 81.1798 394.64 82.9598 394.12C83.8598 393.88 84.6598 393.62 85.3698 393.39C86.0798 393.16 86.6798 392.98 87.1698 392.79C87.6726 392.605 88.1915 392.468 88.7198 392.38Z" fill="#BE185D"/>
<path d="M91.6794 382.5C91.262 382.733 90.8191 382.918 90.3594 383.05C89.4994 383.38 88.2294 383.81 86.6594 384.29C82.5487 385.556 78.3461 386.502 74.0894 387.12C69.8293 387.742 65.5225 387.987 61.2194 387.85C59.5694 387.78 58.2194 387.68 57.3194 387.57C56.8401 387.543 56.3645 387.469 55.8994 387.35C56.3784 387.307 56.8604 387.307 57.3394 387.35C58.2494 387.4 59.5794 387.44 61.2294 387.46C65.5013 387.496 69.77 387.212 73.9994 386.61C78.2343 385.982 82.4258 385.09 86.5494 383.94C88.1294 383.5 89.4094 383.13 90.2894 382.86C90.7418 382.701 91.2068 382.581 91.6794 382.5V382.5Z" fill="#BE185D"/>
<path d="M109.2 425.15C107.483 427.411 105.629 429.565 103.65 431.6C101.797 433.754 99.8172 435.794 97.7197 437.71C99.4381 435.447 101.291 433.29 103.27 431.25C105.12 429.098 107.101 427.061 109.2 425.15V425.15Z" fill="#BE185D"/>
<path d="M117.519 430.07C117.411 430.371 117.26 430.654 117.069 430.91C116.749 431.44 116.249 432.17 115.599 433.06C112.187 437.681 107.826 441.52 102.809 444.32C101.809 444.85 101.059 445.25 100.499 445.5C100.22 445.654 99.9205 445.769 99.6094 445.84C99.6094 445.77 100.769 445.14 102.609 444C105.023 442.524 107.311 440.852 109.449 439C111.564 437.116 113.517 435.059 115.289 432.85C116.679 431.13 117.449 430 117.519 430.07Z" fill="#BE185D"/>
<path d="M120.049 434.51C119.865 436.476 119.27 438.382 118.304 440.104C117.337 441.827 116.021 443.328 114.439 444.51C115.696 443.042 116.839 441.481 117.859 439.84C118.719 438.12 119.451 436.338 120.049 434.51V434.51Z" fill="#BE185D"/>
<path d="M128.439 443.7C128.137 445.311 127.4 446.808 126.309 448.03C125.351 449.36 124.042 450.399 122.529 451.03C123.725 449.993 124.854 448.881 125.909 447.7C126.829 446.417 127.674 445.081 128.439 443.7V443.7Z" fill="#BE185D"/>
<path d="M142 452C142.047 453.728 141.595 455.432 140.7 456.91C139.949 458.467 138.756 459.768 137.27 460.65C138.388 459.409 139.392 458.071 140.27 456.65C140.981 455.154 141.56 453.598 142 452Z" fill="#BE185D"/>
<path d="M157.53 459.46C157.901 461.083 157.729 462.784 157.04 464.3C156.51 465.874 155.486 467.235 154.12 468.18C156.206 465.74 157.407 462.668 157.53 459.46V459.46Z" fill="#BE185D"/>
<path d="M171.87 472.25C171.72 472.2 172.32 470.25 172.46 467.81C172.6 465.37 172.25 463.36 172.4 463.33C173.356 466.264 173.167 469.451 171.87 472.25V472.25Z" fill="#BE185D"/>
<path d="M183.619 473.11C183.479 473.05 184.199 471.31 184.389 469.04C184.579 466.77 184.189 464.94 184.389 464.91C184.884 466.245 185.075 467.674 184.949 469.092C184.823 470.511 184.382 471.883 183.659 473.11H183.619Z" fill="#BE185D"/>
<path d="M200.06 473C199.91 473 200.15 471.29 199.88 469.24C199.61 467.19 198.97 465.62 199.11 465.56C199.869 466.623 200.316 467.877 200.4 469.18C200.65 470.46 200.532 471.785 200.06 473V473Z" fill="#BE185D"/>
<path d="M211.42 472C211.26 472 211.26 470.39 210.72 468.52C210.18 466.65 209.37 465.26 209.5 465.18C210.301 466.107 210.888 467.198 211.219 468.376C211.551 469.555 211.62 470.792 211.42 472Z" fill="#BE185D"/>
<path d="M224.749 469.07C224.589 469.07 224.669 467.5 224.079 465.71C223.489 463.92 222.539 462.71 222.669 462.59C223.556 463.391 224.215 464.413 224.58 465.55C224.945 466.688 225.003 467.902 224.749 469.07V469.07Z" fill="#BE185D"/>
<path d="M241.159 465.73C240.999 465.73 240.979 463.98 240.249 461.99C239.519 460 238.419 458.64 238.539 458.54C239.528 459.435 240.283 460.558 240.739 461.811C241.196 463.064 241.34 464.409 241.159 465.73V465.73Z" fill="#BE185D"/>
<path d="M255 460.33C254.85 460.33 254.3 458.56 253.12 456.58C251.94 454.6 250.63 453.24 250.74 453.13C253.029 454.897 254.553 457.473 255 460.33V460.33Z" fill="#BE185D"/>
<path d="M270.47 452.22C270.32 452.22 269.85 450.34 268.59 448.32C267.33 446.3 265.85 445.02 265.95 444.9C267.198 445.71 268.25 446.787 269.032 448.052C269.814 449.318 270.305 450.741 270.47 452.22V452.22Z" fill="#BE185D"/>
<path d="M285.58 441.39C284.921 440.224 284.183 439.104 283.37 438.04C282.435 437.082 281.433 436.194 280.37 435.38C281.729 435.761 282.927 436.575 283.78 437.7C284.76 438.705 285.391 439.999 285.58 441.39V441.39Z" fill="#BE185D"/>
<path d="M298.519 430.34C298.389 430.43 297.189 428.82 295.369 427.18C293.549 425.54 291.849 424.47 291.929 424.33C293.358 424.862 294.652 425.701 295.719 426.79C296.9 427.756 297.856 428.967 298.519 430.34V430.34Z" fill="#BE185D"/>
<path d="M310.11 415.93C309.98 416.01 308.98 414.39 307.22 412.93C305.46 411.47 303.71 410.73 303.77 410.58C305.163 410.937 306.456 411.605 307.554 412.533C308.652 413.462 309.526 414.626 310.11 415.94V415.93Z" fill="#BE185D"/>
<path d="M320.439 398.78C319.272 397.846 318.053 396.978 316.789 396.18C315.442 395.54 314.06 394.976 312.649 394.49C314.2 394.481 315.722 394.911 317.039 395.73C318.442 396.399 319.622 397.458 320.439 398.78V398.78Z" fill="#BE185D"/>
<path d="M326.72 380.25C324.019 378.684 320.915 377.954 317.8 378.15C319.342 377.703 320.973 377.662 322.535 378.03C324.098 378.397 325.539 379.162 326.72 380.25V380.25Z" fill="#BE185D"/>
<path d="M329.51 360.35C329.46 360.5 327.83 359.93 325.74 359.71C323.65 359.49 321.94 359.71 321.92 359.51C324.463 358.792 327.185 359.094 329.51 360.35V360.35Z" fill="#BE185D"/>
<path d="M328.48 340.42C327.538 340.54 326.588 340.58 325.64 340.54C324.701 340.661 323.755 340.708 322.81 340.68C324.601 339.89 326.623 339.798 328.48 340.42V340.42Z" fill="#BE185D"/>
<path d="M324.4 326.73C323.413 326.525 322.407 326.434 321.4 326.46C320.423 326.65 319.47 326.949 318.56 327.35C318.56 327.3 318.74 327.01 319.22 326.69C319.858 326.278 320.584 326.021 321.34 325.94C322.095 325.855 322.859 325.951 323.57 326.22C324.15 326.43 324.43 326.67 324.4 326.73Z" fill="#BE185D"/>
<g opacity="0.3">
<path opacity="0.3" d="M256.58 394C261.43 403.21 272.74 407.94 283.08 406.68C293.42 405.42 302.63 398.99 309.08 390.79C313.83 384.73 317.35 376.88 315.39 369.44C310.26 380.103 301.287 388.432 290.271 392.754C279.255 397.075 267.012 397.071 256 392.74" fill="black"/>
</g>
<path d="M317.1 314.75C314.777 311.169 313.925 306.83 314.722 302.636C315.52 298.442 317.905 294.718 321.38 292.24C324.14 290.24 327.47 289.17 330.08 287.01C331.676 285.61 332.976 283.905 333.904 281.996C334.831 280.086 335.367 278.01 335.48 275.89C335.673 271.637 334.731 267.409 332.75 263.64L335.53 262.27L335.77 262.57C337.616 264.994 338.901 267.797 339.534 270.777C340.167 273.757 340.131 276.841 339.429 279.805C338.727 282.77 337.376 285.542 335.475 287.922C333.573 290.302 331.167 292.231 328.43 293.57C326.348 294.525 324.391 295.731 322.6 297.16C319.13 300.16 320.55 303.57 320.55 303.57" fill="#BE185D"/>
<g opacity="0.7">
<path opacity="0.7" d="M317.1 314.75C314.777 311.169 313.925 306.83 314.722 302.636C315.52 298.442 317.905 294.718 321.38 292.24C324.14 290.24 327.47 289.17 330.08 287.01C331.676 285.61 332.976 283.905 333.904 281.996C334.831 280.086 335.367 278.01 335.48 275.89C335.673 271.637 334.731 267.409 332.75 263.64L335.53 262.27L335.77 262.57C337.616 264.994 338.901 267.797 339.534 270.777C340.167 273.757 340.131 276.841 339.429 279.805C338.727 282.77 337.376 285.542 335.475 287.922C333.573 290.302 331.167 292.231 328.43 293.57C326.348 294.525 324.391 295.731 322.6 297.16C319.13 300.16 320.55 303.57 320.55 303.57" fill="white"/>
</g>
<path d="M321 303.75C319.867 303.526 318.714 303.425 317.56 303.45C316.415 303.634 315.295 303.946 314.22 304.38C315.128 303.554 316.281 303.045 317.504 302.932C318.727 302.818 319.954 303.105 321 303.75V303.75Z" fill="#BE185D"/>
<path d="M323.62 296.12C323.48 296.17 323.04 295.3 322.22 294.48C321.4 293.66 320.54 293.2 320.59 293.06C320.64 292.92 321.68 293.19 322.59 294.11C323.5 295.03 323.75 296.08 323.62 296.12Z" fill="#BE185D"/>
<path d="M333.429 290.32C333.289 290.37 332.929 289.4 332.139 288.45C331.349 287.5 330.499 286.94 330.569 286.81C330.639 286.68 331.689 287.07 332.569 288.13C333.449 289.19 333.569 290.3 333.429 290.32Z" fill="#BE185D"/>
<path d="M340 277.88C339.235 277.827 338.476 277.71 337.73 277.53C336.964 277.513 336.202 277.429 335.45 277.28C336.2 276.998 337.007 276.906 337.8 277.011C338.594 277.115 339.349 277.414 340 277.88V277.88Z" fill="#BE185D"/>
<path d="M337.77 265.86C337.77 266.01 336.92 265.96 335.99 266.24C335.06 266.52 334.37 266.97 334.27 266.86C334.17 266.75 334.77 266.04 335.84 265.74C336.91 265.44 337.81 265.73 337.77 265.86Z" fill="#BE185D"/>
<path d="M245.21 339.89C248.75 337.59 253.44 338.35 257.46 339.68C261.48 341.01 265.51 342.85 269.72 342.45C274.31 342.02 278.24 338.96 281.27 335.5C285.014 331.222 287.799 326.193 289.44 320.75C291.1 315.21 291.95 308.7 296.72 305.42C301.49 302.14 308.11 303.79 312.21 307.67C316.31 311.55 318.29 317.15 319.59 322.67C322.59 335.39 322.64 348.96 318.52 361.37C314.4 373.78 305.93 384.9 294.43 391.12C282.93 397.34 268.43 398.23 256.73 392.41" fill="#BE185D"/>
<path d="M256.73 392.38C256.914 392.443 257.094 392.517 257.27 392.6L258.83 393.28C259.53 393.55 260.4 393.87 261.43 394.28C262.46 394.69 263.68 394.97 265.07 395.28C268.439 396.008 271.885 396.314 275.33 396.19C277.479 396.103 279.618 395.856 281.73 395.45C284.099 395.018 286.425 394.375 288.68 393.53C293.876 391.589 298.664 388.696 302.8 385C307.56 380.788 311.52 375.75 314.49 370.13C317.768 363.922 319.914 357.18 320.83 350.22C321.816 342.746 321.654 335.165 320.35 327.74C319.749 323.973 318.809 320.268 317.54 316.67C316.348 313.169 314.307 310.019 311.6 307.5C308.927 305.139 305.454 303.887 301.89 304C300.184 304.074 298.526 304.591 297.08 305.5C295.684 306.421 294.52 307.653 293.68 309.1C291.96 311.94 291.22 315.18 290.38 318.24C289.643 321.258 288.584 324.188 287.22 326.98C285.938 329.584 284.371 332.039 282.55 334.3C280.904 336.421 278.965 338.296 276.79 339.87C274.806 341.32 272.494 342.258 270.06 342.6C267.885 342.798 265.693 342.564 263.61 341.91C259.72 340.76 256.54 339.28 253.73 338.83C251.602 338.358 249.391 338.413 247.29 338.99C246.751 339.159 246.229 339.376 245.73 339.64C245.39 339.83 245.21 339.91 245.21 339.91L245.7 339.6C246.191 339.311 246.711 339.073 247.25 338.89C249.367 338.259 251.609 338.17 253.77 338.63C256.61 339.06 259.83 340.52 263.69 341.63C265.737 342.259 267.888 342.476 270.02 342.27C272.396 341.924 274.649 340.996 276.58 339.57C278.72 338.009 280.626 336.15 282.24 334.05C284.027 331.802 285.566 329.368 286.83 326.79C288.176 324.02 289.218 321.113 289.94 318.12C290.77 315.07 291.5 311.79 293.27 308.85C294.143 307.337 295.359 306.049 296.82 305.09C298.319 304.131 300.043 303.583 301.82 303.5C303.634 303.416 305.447 303.698 307.15 304.33C308.891 304.956 310.502 305.898 311.9 307.11C314.669 309.684 316.757 312.903 317.98 316.48C319.264 320.113 320.215 323.855 320.82 327.66C322.141 335.134 322.3 342.767 321.29 350.29C320.363 357.309 318.189 364.106 314.87 370.36C311.868 376.035 307.859 381.118 303.04 385.36C298.854 389.057 294.014 391.94 288.77 393.86C286.497 394.697 284.154 395.333 281.77 395.76C279.64 396.153 277.484 396.387 275.32 396.46C271.852 396.564 268.384 396.228 265 395.46C263.61 395.16 262.41 394.76 261.36 394.46C260.31 394.16 259.46 393.75 258.77 393.46L257.23 392.73C256.9 392.48 256.73 392.38 256.73 392.38Z" fill="#263238"/>
<path d="M299.77 317.15C299.258 316.727 298.848 316.193 298.57 315.59C297.815 314.162 297.436 312.565 297.47 310.95C297.489 309.338 297.912 307.756 298.7 306.35C298.989 305.748 299.418 305.223 299.95 304.82C300.02 304.88 299.54 305.46 299.03 306.52C298.367 307.908 298.013 309.423 297.99 310.961C297.968 312.498 298.278 314.023 298.9 315.43C299.39 316.5 299.85 317.1 299.77 317.15Z" fill="#263238"/>
<path d="M305.84 316.27C305.382 315.798 305.022 315.241 304.78 314.63C304.109 313.182 303.716 311.622 303.62 310.03C303.519 308.439 303.723 306.844 304.22 305.33C304.381 304.692 304.67 304.093 305.07 303.57C304.323 305.627 304.005 307.815 304.138 310C304.27 312.184 304.85 314.318 305.84 316.27Z" fill="#263238"/>
<path d="M310.7 318C310.068 316.483 309.807 314.838 309.94 313.2C309.896 311.557 310.239 309.926 310.94 308.44C311.09 308.49 310.52 310.57 310.46 313.21C310.4 315.85 310.85 318 310.7 318Z" fill="#263238"/>
<path d="M394.189 330.5C385.039 336.08 372.869 335.02 363.389 330.01C353.909 325 346.729 316.61 340.739 307.81C339.039 305.31 337.319 302.66 334.679 301.15C329.489 298.15 322.319 301.05 319.339 306.15C316.359 311.25 316.919 317.79 319.219 323.25C319.219 323.25 325.319 352.81 357.119 371.19" fill="#BE185D"/>
<path d="M357.119 371.22C357.023 371.187 356.932 371.14 356.849 371.08L356.069 370.62C355.369 370.19 354.379 369.57 353.069 368.79C352.439 368.37 351.679 367.97 350.929 367.41L348.479 365.62C347.609 364.95 346.609 364.32 345.669 363.49L342.669 360.92C337.72 356.487 333.319 351.478 329.559 346C327.29 342.703 325.284 339.232 323.559 335.62C321.622 331.69 320.094 327.572 318.999 323.33V323.38C317.478 319.899 316.842 316.096 317.149 312.31C317.343 310.333 317.907 308.41 318.809 306.64C319.985 304.408 321.789 302.569 323.998 301.35C326.207 300.131 328.724 299.585 331.239 299.78C332.704 299.954 334.11 300.46 335.349 301.26C336.535 302.069 337.588 303.057 338.469 304.19C339.359 305.29 340.139 306.45 340.899 307.58C341.659 308.71 342.449 309.82 343.229 310.9C344.809 313.07 346.429 315.14 348.099 317.07C351.233 320.761 354.802 324.058 358.729 326.89C362.16 329.354 365.965 331.248 369.999 332.5C375.824 334.396 382.068 334.59 387.999 333.06C388.494 332.938 388.982 332.788 389.459 332.61C389.909 332.45 390.339 332.32 390.719 332.16C391.479 331.82 392.139 331.56 392.639 331.3L393.789 330.69C393.917 330.615 394.051 330.552 394.189 330.5C394.073 330.59 393.949 330.67 393.819 330.74L392.689 331.39C392.189 331.67 391.539 331.94 390.779 332.3C390.389 332.47 389.969 332.61 389.519 332.78C389.04 332.97 388.549 333.13 388.049 333.26C382.074 334.886 375.755 334.744 369.859 332.85C365.783 331.611 361.936 329.716 358.469 327.24C354.502 324.402 350.895 321.091 347.729 317.38C346.039 315.44 344.409 313.38 342.819 311.2C342.029 310.11 341.249 308.99 340.479 307.86C339.709 306.73 338.939 305.58 338.069 304.51C337.218 303.424 336.206 302.473 335.069 301.69C333.896 300.934 332.566 300.459 331.179 300.3C328.305 300.038 325.433 300.83 323.099 302.53C321.532 303.674 320.234 305.147 319.294 306.844C318.355 308.542 317.797 310.424 317.659 312.36C317.363 316.06 317.981 319.775 319.459 323.18V323.23C320.538 327.443 322.046 331.534 323.959 335.44C325.688 339.037 327.694 342.494 329.959 345.78C333.686 351.245 338.05 356.247 342.959 360.68L345.959 363.27C346.889 364.11 347.879 364.74 348.729 365.42L351.159 367.24C351.899 367.81 352.649 368.24 353.279 368.64L356.209 370.54L356.959 371.04C357.018 371.095 357.072 371.155 357.119 371.22V371.22Z" fill="#263238"/>
<path d="M327.82 317.89C327.062 315.474 325.997 313.165 324.65 311.02C322.31 307.52 319.33 305.68 319.45 305.54C320.147 305.83 320.792 306.232 321.36 306.73C324.25 309.013 326.366 312.131 327.42 315.66C327.681 316.375 327.817 317.129 327.82 317.89V317.89Z" fill="#263238"/>
<path d="M334 313.88C333.606 311.343 332.88 308.868 331.84 306.52C330.641 304.251 329.151 302.146 327.41 300.26C328.068 300.659 328.658 301.158 329.16 301.74C330.439 303.089 331.502 304.627 332.31 306.3C333.114 307.972 333.66 309.755 333.93 311.59C334.085 312.344 334.108 313.119 334 313.88V313.88Z" fill="#263238"/>
<g opacity="0.3">
<path opacity="0.3" d="M313.329 372.57C315.819 368.76 305.559 367.86 301.039 368.39C294.419 369.151 288.318 372.344 283.92 377.35C279.522 382.356 277.141 388.817 277.239 395.48C277.239 395.48 296.999 397.59 313.329 372.57Z" fill="white"/>
</g>
<g opacity="0.3">
<path opacity="0.3" d="M330.18 355.56C335.378 363.511 343.087 369.496 352.08 372.56C353.023 372.969 354.06 373.114 355.08 372.98C355.582 372.906 356.043 372.658 356.383 372.28C356.723 371.902 356.919 371.418 356.94 370.91C346.25 365.094 337.087 356.833 330.2 346.8C329.675 349.877 330.115 353.042 331.46 355.86" fill="black"/>
</g>
<path d="M316.422 288.079C325.228 279.273 325.228 264.995 316.422 256.189C307.615 247.382 293.338 247.382 284.531 256.189C275.725 264.995 275.725 279.273 284.531 288.079C293.338 296.885 307.615 296.885 316.422 288.079Z" fill="white"/>
<path d="M323 273.08C323 283.97 317.28 293.08 310.91 293.08C304.54 293.08 299.37 284.25 299.37 273.37C299.37 262.49 304.54 253.66 310.91 253.66C317.28 253.66 323 262.2 323 273.08Z" fill="#263238"/>
<path d="M305.3 282.43C305.112 282.207 304.957 281.958 304.84 281.69C304.478 280.983 304.167 280.251 303.91 279.5C302.169 274.481 302.314 268.999 304.32 264.08C304.616 263.343 304.971 262.631 305.38 261.95C305.507 261.687 305.672 261.444 305.87 261.23C305.95 261.23 305.35 262.35 304.67 264.23C303.793 266.658 303.307 269.21 303.23 271.79C303.164 274.367 303.501 276.938 304.23 279.41C304.84 281.28 305.39 282.39 305.3 282.43Z" fill="white"/>
<path d="M313.79 264.59C315.922 264.59 317.65 262.862 317.65 260.73C317.65 258.598 315.922 256.87 313.79 256.87C311.658 256.87 309.93 258.598 309.93 260.73C309.93 262.862 311.658 264.59 313.79 264.59Z" fill="white"/>
<path d="M315.079 244.3C314.649 244.89 313.559 244.88 312.189 244.66C310.819 244.44 309.099 244.04 307.239 243.74C305.379 243.44 303.699 243.26 302.349 243.07C300.999 242.88 299.959 242.61 299.689 241.93C299.419 241.25 300.069 240.28 301.589 239.47C302.483 239.013 303.446 238.706 304.439 238.56C305.652 238.371 306.887 238.371 308.099 238.56C310.285 238.892 312.32 239.874 313.939 241.38C315.139 242.62 315.489 243.73 315.079 244.3Z" fill="#263238"/>
<path d="M304.86 300.29C303.119 296.714 302.736 292.627 303.781 288.789C304.827 284.951 307.23 281.623 310.544 279.424C313.858 277.224 317.858 276.302 321.8 276.829C325.743 277.357 329.36 279.297 331.98 282.29" fill="#BE185D"/>
<path d="M331.999 282.29C331.999 282.29 331.519 281.84 330.629 281.07C329.358 279.991 327.928 279.114 326.389 278.47C324.117 277.509 321.666 277.039 319.199 277.09C316.166 277.062 313.194 277.941 310.664 279.614C308.134 281.287 306.161 283.678 304.999 286.48C303.995 288.733 303.477 291.173 303.479 293.64C303.479 295.305 303.732 296.961 304.229 298.55C304.589 299.67 304.869 300.27 304.819 300.29C304.726 300.163 304.649 300.026 304.589 299.88C304.379 299.472 304.196 299.051 304.039 298.62C303.45 297.018 303.139 295.327 303.119 293.62C303.052 291.091 303.544 288.578 304.559 286.26C305.733 283.366 307.752 280.894 310.354 279.167C312.955 277.44 316.017 276.538 319.139 276.58C321.668 276.551 324.173 277.073 326.479 278.11C328.032 278.793 329.459 279.732 330.699 280.89C331.039 281.201 331.356 281.535 331.649 281.89C331.782 282.008 331.9 282.143 331.999 282.29V282.29Z" fill="#263238"/>
<path d="M260.08 214.9C259.921 214.984 259.748 215.041 259.57 215.07L258.08 215.47C257.43 215.63 256.64 215.86 255.73 216.14L254.28 216.57L252.66 217.12C246.782 219.174 241.143 221.856 235.84 225.12C230.531 228.395 225.452 232.03 220.64 236C218.79 237.52 217.3 238.76 216.29 239.64L215.1 240.64C214.83 240.87 214.68 240.98 214.66 240.96C214.769 240.817 214.893 240.686 215.03 240.57L216.15 239.5C217.15 238.58 218.58 237.3 220.4 235.73C225.167 231.679 230.239 228.002 235.57 224.73C240.903 221.42 246.609 218.755 252.57 216.79L254.2 216.26L255.68 215.87C256.6 215.61 257.39 215.41 258.05 215.28L259.57 214.98C259.736 214.933 259.908 214.906 260.08 214.9Z" fill="#263238"/>
<path d="M115.06 92.7803C114.881 92.4065 114.744 92.0141 114.65 91.6103C114.53 91.2303 114.4 90.7503 114.28 90.2003C114.16 89.6503 114 89.0003 113.9 88.3003C113.626 86.647 113.472 84.9759 113.44 83.3003C113.415 81.2424 113.556 79.1858 113.86 77.1503C114.193 75.1151 114.685 73.109 115.33 71.1503C115.883 69.5602 116.551 68.0127 117.33 66.5203C117.64 65.8703 117.99 65.3203 118.27 64.8203C118.55 64.3203 118.82 63.9203 119.05 63.5903C119.264 63.231 119.515 62.8958 119.8 62.5903C119.88 62.6403 118.89 64.1103 117.66 66.6703C116.95 68.1699 116.335 69.713 115.82 71.2903C115.208 73.2312 114.734 75.2128 114.4 77.2203C114.106 79.2304 113.956 81.2589 113.95 83.2903C113.959 84.9628 114.076 86.6329 114.3 88.2903C114.66 91.0603 115.16 92.7603 115.06 92.7803Z" fill="#263238"/>
<path d="M351.245 31.5786L134.406 71.9238L157.1 193.891L373.938 153.545L351.245 31.5786Z" fill="white"/>
<path d="M373.941 153.54C373.941 153.54 373.781 152.8 373.511 151.36C373.241 149.92 372.831 147.78 372.301 144.99C371.251 139.41 369.701 131.18 367.721 120.62C363.721 99.5101 358.061 69.0501 351.041 31.6201L351.281 31.7801L134.461 72.1701L134.671 71.8601C142.671 115 150.361 156.26 157.351 193.86L157.061 193.66L313.061 164.75L357.871 156.48L369.811 154.29L372.891 153.73L373.951 153.55L372.951 153.76L369.901 154.34L358.001 156.57L313.261 165L157.141 194.13L156.901 194.18V193.94C149.901 156.36 142.221 115.11 134.181 71.9401V71.6801H134.431L351.201 31.3701H351.401V31.5601L367.881 120.74C369.821 131.29 371.331 139.5 372.361 145.08L373.521 151.42C373.821 152.82 373.941 153.54 373.941 153.54Z" fill="#263238"/>
<path d="M227.67 118.66L221 119.9L222.6 128.47L210.26 130.77L208.66 122.2L185 126.6L183.46 118.35L198.34 86.6802L211.45 84.2402L198.09 113.78L207.17 112.09L205.75 104.48L217.75 102.26L219.17 109.86L225.81 108.63L227.67 118.66Z" fill="#263238"/>
<path d="M227.66 104.38C224.91 89.6102 231.66 79.5602 243.09 77.4302C254.52 75.3002 264.36 82.2702 267.09 97.0402C269.82 111.81 263.09 121.86 251.73 123.97C240.37 126.08 230.41 119.15 227.66 104.38ZM254.39 99.3802C252.64 90.0002 249 87.0002 245 87.7902C241 88.5802 238.62 92.6102 240.37 102.01C242.12 111.41 245.71 114.38 249.8 113.62C253.89 112.86 256.14 108.8 254.39 99.4002V99.3802Z" fill="#263238"/>
<path d="M316.231 102.18L309.581 103.42L311.171 111.99L298.841 114.29L297.241 105.72L273.581 110.12L272.051 101.87L286.931 70.2002L300.001 67.7603L286.681 97.3003L295.761 95.6103L294.341 88.0003L306.341 85.7803L307.751 93.3802L314.401 92.1503L316.231 102.18Z" fill="#263238"/>
<path d="M232.08 154.75L232.49 156.93L219.75 159.3L216.48 141.74L228.87 139.44L229.27 141.62L219.39 143.46L220.39 148.85L229.2 147.21L229.6 149.35L220.79 151L221.85 156.66L232.08 154.75Z" fill="#263238"/>
<path d="M248.28 154L243.49 149.31C243.15 149.4 242.78 149.5 242.4 149.57L238.06 150.38L239.06 155.72L236.56 156.19L233.29 138.63L240.14 137.35C244.7 136.5 247.89 138.3 248.6 142.11C248.884 143.32 248.76 144.589 248.248 145.721C247.736 146.853 246.865 147.784 245.77 148.37L251.03 153.49L248.28 154ZM246.08 142.58C245.61 140.07 243.67 138.95 240.46 139.58L236.19 140.37L237.66 148.27L241.93 147.48C245.14 146.84 246.55 145.08 246.08 142.57V142.58Z" fill="#263238"/>
<path d="M266.511 150.6L261.721 145.91C261.381 146 261.011 146.1 260.631 146.17L256.291 146.97L257.291 152.32L254.79 152.78L251.521 135.23L258.37 133.95C262.93 133.1 266.12 134.95 266.83 138.71C267.121 139.924 267.001 141.2 266.489 142.338C265.977 143.476 265.102 144.412 264.001 145L269.261 150.12L266.511 150.6ZM264.311 139.18C263.841 136.67 261.901 135.55 258.691 136.18L254.421 136.97L255.891 144.87L260.161 144.08C263.371 143.45 264.781 141.68 264.311 139.18Z" fill="#263238"/>
<path d="M269.94 140.88C268.99 135.74 272.23 131.16 277.63 130.16C283.03 129.16 287.63 132.24 288.63 137.41C289.63 142.58 286.34 147.12 281 148.12C275.66 149.12 270.9 146 269.94 140.88ZM286.1 137.88C285.866 136.523 285.233 135.266 284.282 134.27C283.331 133.273 282.105 132.583 280.761 132.285C279.416 131.987 278.013 132.097 276.731 132.599C275.448 133.101 274.344 133.974 273.559 135.105C272.774 136.237 272.343 137.576 272.322 138.954C272.301 140.331 272.69 141.683 273.439 142.838C274.189 143.994 275.265 144.9 276.532 145.442C277.798 145.983 279.197 146.136 280.55 145.88C281.451 145.742 282.315 145.422 283.089 144.938C283.862 144.455 284.529 143.819 285.048 143.069C285.568 142.32 285.929 141.472 286.11 140.578C286.291 139.684 286.287 138.763 286.1 137.87V137.88Z" fill="#263238"/>
<path d="M305.81 143.29L301 138.6C300.65 138.69 300.28 138.78 299.9 138.85L295.56 139.66L296.56 145L294.05 145.47L290.78 127.91L297.63 126.64C302.2 125.79 305.38 127.58 306.09 131.4C306.377 132.61 306.255 133.88 305.743 135.013C305.231 136.145 304.358 137.076 303.26 137.66L308.52 142.78L305.81 143.29ZM303.6 131.86C303.14 129.36 301.19 128.24 297.98 128.86L293.72 129.65L295.19 137.55L299.45 136.76C302.66 136.14 304.07 134.37 303.6 131.86V131.86Z" fill="#263238"/>
<path d="M346.67 44.7801C346.705 45.6744 346.474 46.559 346.006 47.3218C345.538 48.0846 344.854 48.6912 344.041 49.0648C343.227 49.4384 342.321 49.5622 341.438 49.4204C340.554 49.2787 339.732 48.8777 339.077 48.2685C338.421 47.6592 337.961 46.869 337.755 45.9981C337.549 45.1271 337.606 44.2146 337.919 43.3762C338.233 42.5377 338.788 41.8111 339.514 41.2884C340.241 40.7658 341.106 40.4705 342 40.4401C343.194 40.3995 344.356 40.8333 345.231 41.6465C346.106 42.4598 346.623 43.5864 346.67 44.7801V44.7801Z" fill="#E0E0E0"/>
<path d="M346.67 44.7799C346.62 44.7799 346.61 44.3799 346.39 43.7099C346.071 42.7741 345.457 41.9671 344.64 41.4099C343.98 40.9632 343.21 40.7075 342.414 40.6713C341.618 40.6351 340.828 40.8197 340.13 41.2047C339.433 41.5897 338.855 42.1601 338.462 42.8528C338.068 43.5455 337.874 44.3336 337.9 45.1299C337.939 45.923 338.197 46.69 338.643 47.3465C339.09 48.003 339.709 48.5236 340.433 48.8512C341.156 49.1788 341.956 49.3006 342.744 49.2034C343.532 49.1061 344.278 48.7935 344.9 48.2999C345.673 47.6833 346.221 46.8293 346.46 45.8699C346.63 45.1799 346.61 44.7799 346.66 44.7799C346.71 44.7799 346.66 44.8799 346.71 45.0699C346.729 45.3509 346.712 45.6332 346.66 45.9099C346.482 46.9529 345.94 47.8991 345.13 48.5799C344.528 49.0927 343.807 49.4451 343.032 49.6042C342.257 49.7633 341.455 49.724 340.7 49.4899C339.764 49.1994 338.941 48.626 338.345 47.8485C337.748 47.0711 337.407 46.1278 337.369 45.1486C337.33 44.1694 337.597 43.2024 338.13 42.3806C338.664 41.5589 339.44 40.9228 340.35 40.5599C341.084 40.2646 341.881 40.1602 342.666 40.2564C343.451 40.3526 344.199 40.6462 344.84 41.1099C345.699 41.7298 346.311 42.6328 346.57 43.6599C346.646 43.9299 346.683 44.2094 346.68 44.4899C346.69 44.6799 346.69 44.7799 346.67 44.7799Z" fill="#263238"/>
<path d="M344.15 41.6401C344.374 42.8466 344.154 44.0934 343.53 45.1501C343.065 46.2835 342.205 47.2104 341.11 47.7601C341.824 46.855 342.475 45.9028 343.06 44.9101C343.495 43.8451 343.859 42.7527 344.15 41.6401V41.6401Z" fill="#263238"/>
<path d="M345.001 46.4301C344.871 46.5101 344.271 45.3201 342.911 44.6201C342.05 44.2719 341.144 44.0496 340.221 43.9601C340.221 43.8901 340.521 43.7501 341.071 43.7101C341.792 43.6725 342.51 43.8278 343.151 44.1601C343.791 44.4908 344.33 44.9884 344.711 45.6001C345.001 46.0701 345.101 46.4101 345.001 46.4301Z" fill="#263238"/>
<path d="M144.015 104.412L132.639 113.483L136.741 118.628L148.117 109.556L144.015 104.412Z" fill="#E0E0E0"/>
<path d="M148.11 109.57C148.11 109.57 147.65 109.07 146.91 108.19L143.91 104.54H144.18C141.26 106.92 137.27 110.14 132.85 113.66C132.85 113.99 132.85 113.22 132.85 113.3L132.92 113.39L133.06 113.56L133.33 113.89L133.86 114.56L134.86 115.87L136.86 118.37H136.51C139.79 115.78 142.64 113.58 144.69 112L147.11 110.16C147.405 109.919 147.715 109.699 148.04 109.5C147.805 109.746 147.551 109.974 147.28 110.18L144.98 112.1C142.98 113.74 140.16 116.1 136.82 118.76L136.63 118.91L136.47 118.72L134.47 116.23C134.12 115.8 133.77 115.37 133.42 114.92L132.89 114.26L132.62 113.92L132.48 113.75L132.42 113.67C132.42 113.75 132.5 112.98 132.42 113.31C136.84 109.78 140.87 106.61 143.84 104.31L143.99 104.2L144.11 104.34C145.38 105.98 146.39 107.34 147.11 108.22C147.473 108.647 147.807 109.098 148.11 109.57V109.57Z" fill="#263238"/>
<path d="M130.081 120C130.575 120.626 131.187 121.149 131.884 121.538C132.58 121.927 133.346 122.175 134.138 122.268C134.93 122.361 135.733 122.297 136.501 122.079C137.268 121.861 137.985 121.495 138.611 121L131.001 111.5C129.757 112.509 128.962 113.968 128.79 115.561C128.618 117.153 129.082 118.748 130.081 120V120Z" fill="#E0E0E0"/>
<path d="M130.08 120C129.896 119.849 129.738 119.67 129.61 119.47C129.234 118.915 128.956 118.299 128.79 117.65C128.523 116.647 128.523 115.592 128.79 114.59C129.12 113.289 129.86 112.128 130.9 111.28L131.09 111.13L131.24 111.32L135.04 116.05C136.38 117.73 137.65 119.34 138.81 120.81L138.96 121L138.77 121.15C137.713 121.974 136.42 122.44 135.08 122.48C134.037 122.506 133.004 122.265 132.08 121.78C131.487 121.471 130.953 121.062 130.5 120.57C130.331 120.403 130.19 120.211 130.08 120C130.714 120.605 131.432 121.117 132.21 121.52C133.219 121.986 134.338 122.163 135.442 122.03C136.545 121.898 137.59 121.462 138.46 120.77V121.11L134.66 116.38L130.89 111.62H131.22C130.35 112.316 129.691 113.24 129.317 114.289C128.942 115.338 128.867 116.471 129.1 117.56C129.313 118.414 129.643 119.236 130.08 120V120Z" fill="#263238"/>
<path d="M131.481 116.85C131.013 117.392 130.707 118.054 130.596 118.76C130.484 119.467 130.573 120.191 130.851 120.85" fill="#E0E0E0"/>
<path d="M130.85 120.89C130.588 120.605 130.403 120.259 130.312 119.882C130.221 119.506 130.227 119.113 130.33 118.74C130.52 117.44 131.4 116.74 131.48 116.85C131.56 116.96 131 117.7 130.84 118.85C130.68 120 131 120.82 130.85 120.89Z" fill="#263238"/>
<path d="M138.63 117.5C137.824 116.675 137.081 115.789 136.41 114.85C135.611 114.023 134.876 113.137 134.21 112.2C135.243 112.765 136.132 113.558 136.81 114.52C137.629 115.367 138.25 116.385 138.63 117.5Z" fill="#263238"/>
<path d="M140.001 116.44C139.199 115.613 138.46 114.727 137.791 113.79C136.99 112.962 136.254 112.072 135.591 111.13C137.559 112.419 139.095 114.269 140.001 116.44V116.44Z" fill="#263238"/>
<path d="M141.3 115.37C140.495 114.546 139.756 113.66 139.09 112.72C138.286 111.895 137.548 111.009 136.88 110.07C137.914 110.636 138.807 111.429 139.49 112.39C140.302 113.24 140.92 114.257 141.3 115.37V115.37Z" fill="#263238"/>
<path d="M142.631 114.31C141.829 113.483 141.09 112.597 140.421 111.66C139.623 110.828 138.888 109.939 138.221 109C139.247 109.573 140.135 110.365 140.821 111.32C141.641 112.168 142.26 113.19 142.631 114.31V114.31Z" fill="#263238"/>
<path d="M144.001 113.24C143.196 112.416 142.457 111.53 141.791 110.59C140.989 109.766 140.253 108.88 139.591 107.94C140.619 108.51 141.507 109.303 142.191 110.26C143.003 111.11 143.621 112.127 144.001 113.24V113.24Z" fill="#263238"/>
<path d="M145.301 112.18C144.499 111.353 143.76 110.467 143.091 109.53C142.293 108.699 141.558 107.81 140.891 106.87C141.917 107.443 142.805 108.235 143.491 109.19C144.311 110.038 144.93 111.06 145.301 112.18V112.18Z" fill="#263238"/>
<path d="M146.64 111.11C145.836 110.286 145.097 109.4 144.43 108.46C143.628 107.636 142.893 106.75 142.23 105.81C143.259 106.381 144.147 107.173 144.83 108.13C145.643 108.98 146.261 109.997 146.64 111.11V111.11Z" fill="#263238"/>
<path d="M154.5 82.0003C154.45 82.0003 154.44 81.5903 154.22 80.9203C153.903 79.9671 153.276 79.147 152.44 78.5903C151.773 78.1352 150.992 77.8739 150.186 77.8354C149.379 77.7968 148.577 77.9827 147.87 78.3722C147.162 78.7616 146.577 79.3396 146.178 80.0418C145.779 80.7441 145.582 81.5431 145.61 82.3503C145.645 83.158 145.904 83.9401 146.357 84.6096C146.811 85.279 147.441 85.8096 148.178 86.1423C148.914 86.4749 149.729 86.5967 150.531 86.4939C151.333 86.3912 152.091 86.068 152.72 85.5603C153.505 84.938 154.06 84.0727 154.3 83.1003C154.47 82.4103 154.45 82.0003 154.5 82.0003C154.55 82.0003 154.5 82.1003 154.55 82.2903C154.569 82.5746 154.552 82.8602 154.5 83.1403C154.337 84.2015 153.806 85.1715 153 85.8803C152.392 86.4007 151.662 86.7574 150.878 86.9167C150.094 87.0759 149.282 87.0324 148.52 86.7903C147.586 86.4878 146.767 85.9062 146.174 85.124C145.581 84.3418 145.242 83.3966 145.203 82.4158C145.164 81.4349 145.426 80.4657 145.955 79.6386C146.484 78.8115 147.253 78.1664 148.16 77.7903C148.904 77.494 149.711 77.39 150.507 77.4879C151.302 77.5857 152.06 77.8823 152.71 78.3503C153.577 78.9792 154.196 79.8921 154.46 80.9303C154.533 81.2046 154.573 81.4866 154.58 81.7703C154.547 81.9236 154.52 82.0003 154.5 82.0003Z" fill="#263238"/>
<path d="M124.8 93.0801C124.63 92.7036 124.496 92.3119 124.4 91.9101C124.247 91.4452 124.123 90.9709 124.03 90.4901C123.91 89.9401 123.74 89.3101 123.65 88.6001C123.373 86.947 123.216 85.276 123.18 83.6001C123.102 79.4704 123.745 75.3587 125.08 71.4501C125.63 69.8558 126.299 68.3048 127.08 66.8101C127.38 66.1601 127.73 65.6101 128.01 65.1201C128.249 64.6972 128.51 64.2867 128.79 63.8901C129.006 63.5327 129.258 63.1977 129.54 62.8901C129.63 62.9501 128.63 64.4101 127.41 66.9801C126.689 68.476 126.07 70.0196 125.56 71.6001C124.948 73.5369 124.477 75.5154 124.15 77.5201C123.848 79.5327 123.694 81.5649 123.69 83.6001C123.698 85.2726 123.815 86.9428 124.04 88.6001C124.4 91.3601 124.9 93.0501 124.8 93.0801Z" fill="#263238"/>
<path d="M388.49 137C388.675 137.371 388.813 137.764 388.901 138.17C389.049 138.633 389.173 139.104 389.27 139.58C389.39 140.14 389.561 140.77 389.651 141.48C389.928 143.133 390.086 144.804 390.121 146.48C390.197 150.61 389.554 154.721 388.221 158.63C387.672 160.222 387.004 161.77 386.221 163.26C385.911 163.91 385.571 164.46 385.281 164.96C385.046 165.386 384.786 165.797 384.501 166.19C384.292 166.55 384.044 166.886 383.761 167.19C383.671 167.14 384.671 165.67 385.891 163.11C386.6 161.609 387.218 160.066 387.74 158.49C388.354 156.55 388.825 154.568 389.151 152.56C389.453 150.551 389.606 148.522 389.61 146.49C389.596 144.818 389.479 143.148 389.261 141.49C388.901 138.76 388.4 137.06 388.49 137Z" fill="#263238"/>
<path d="M395.001 138.76C395.183 139.133 395.32 139.525 395.411 139.93C395.559 140.393 395.683 140.864 395.781 141.34C395.901 141.9 396.061 142.53 396.161 143.24C396.438 144.893 396.596 146.564 396.631 148.24C396.651 150.298 396.511 152.354 396.211 154.39C395.879 156.427 395.384 158.433 394.731 160.39C394.18 161.985 393.512 163.536 392.731 165.03C392.421 165.67 392.081 166.22 391.791 166.72C391.551 167.161 391.287 167.589 391.001 168C390.792 168.36 390.544 168.696 390.261 169C390.171 168.95 391.171 167.48 392.391 164.92C393.104 163.421 393.722 161.878 394.24 160.3C394.854 158.36 395.325 156.378 395.651 154.37C395.953 152.361 396.107 150.332 396.11 148.3C396.097 146.628 395.98 144.958 395.761 143.3C395.401 140.48 394.901 138.78 395.001 138.76Z" fill="#263238"/>
<path d="M177.53 217.21C183.862 208.752 186.794 198.227 185.746 187.714C184.698 177.2 179.748 167.461 171.871 160.419C163.994 153.376 153.764 149.543 143.199 149.674C132.634 149.806 122.502 153.893 114.803 161.129C107.104 168.365 102.397 178.224 101.611 188.76C100.825 199.297 104.018 209.745 110.559 218.043C117.099 226.341 126.513 231.886 136.941 233.583C147.37 235.28 158.056 233.006 166.89 227.21L181.41 233.64L177.53 217.21Z" fill="#FAFAFA"/>
<path d="M130.92 189.52C131.043 187.928 131.654 186.412 132.67 185.18C133.614 183.932 134.925 183.012 136.42 182.55C137.698 182.181 139.062 182.246 140.298 182.737C141.535 183.228 142.573 184.115 143.25 185.26C143.826 184.113 144.751 183.18 145.893 182.594C147.034 182.008 148.333 181.8 149.6 182C151.125 182.294 152.522 183.052 153.6 184.17C154.748 185.281 155.533 186.714 155.85 188.28C156.214 190.286 155.919 192.355 155.01 194.18C153.945 196.04 152.45 197.617 150.65 198.78C147.74 200.78 143.91 203.28 143.91 203.28C143.91 203.28 140.4 200.97 137.28 199.33C135.353 198.389 133.68 197 132.4 195.28C131.302 193.568 130.783 191.549 130.92 189.52V189.52Z" fill="#BE185D"/>
<path d="M143.68 149.83C143.434 149.808 143.186 149.808 142.94 149.83L140.79 149.9C140.31 149.9 139.79 149.9 139.2 149.97L137.3 150.23L135.08 150.55L132.6 151.17C128.338 152.243 124.284 154.014 120.6 156.41C115.135 159.885 110.539 164.564 107.162 170.09C103.786 175.616 101.719 181.842 101.12 188.29C100.954 190.225 100.914 192.169 101 194.11C101.07 195.11 101 196.11 101.19 197.11C101.38 198.11 101.49 199.11 101.65 200.11C102.394 204.228 103.742 208.215 105.65 211.94C107.692 215.84 110.293 219.421 113.37 222.57C116.645 225.794 120.4 228.493 124.5 230.57C128.741 232.748 133.336 234.157 138.07 234.73C139.268 234.918 140.477 235.022 141.69 235.04C142.907 235.133 144.129 235.157 145.35 235.11C147.815 235.008 150.267 234.696 152.68 234.18C157.887 233.052 162.837 230.956 167.27 228L166.83 228.05L181.69 234.05L182.57 234.41L182.32 233.49L178 217.55L177.93 217.94C181.959 212.596 184.672 206.378 185.85 199.79C186.422 196.725 186.617 193.602 186.43 190.49C186.4 188.984 186.256 187.483 186 186C185.89 185.27 185.77 184.55 185.66 183.83C185.55 183.11 185.31 182.42 185.14 181.72C182.658 171.955 176.785 163.392 168.57 157.56C165.534 155.38 162.213 153.627 158.7 152.35L156.48 151.56L154.37 151.02L152.44 150.54C151.82 150.42 151.22 150.36 150.66 150.27C149.54 150.13 148.55 149.94 147.66 149.89L145.47 149.82H144.14C143.991 149.798 143.839 149.798 143.69 149.82C143.838 149.853 143.988 149.873 144.14 149.88L145.47 149.98L147.63 150.13C148.49 150.2 149.47 150.41 150.58 150.58C158.642 151.971 166.126 155.674 172.124 161.237C178.122 166.8 182.376 173.985 184.37 181.92C184.53 182.61 184.74 183.29 184.87 183.99C185 184.69 185.08 185.41 185.19 186.12C185.431 187.571 185.562 189.039 185.58 190.51C185.75 193.563 185.549 196.625 184.98 199.63C183.803 206.078 181.124 212.159 177.16 217.38L177.03 217.56L177.09 217.78C178.49 222.91 179.93 228.22 181.42 233.67L182.05 233.11L167.2 227.11L166.97 227.02L166.75 227.15C162.41 230.018 157.575 232.053 152.49 233.15C150.133 233.655 147.738 233.96 145.33 234.06C144.136 234.101 142.941 234.078 141.75 233.99C140.568 233.97 139.388 233.87 138.22 233.69C133.592 233.134 129.099 231.762 124.95 229.64C120.922 227.624 117.229 225 114 221.86C110.983 218.78 108.427 215.28 106.41 211.47C104.519 207.829 103.171 203.931 102.41 199.9C102.26 198.9 102.11 197.9 101.96 196.97C101.81 196.04 101.83 194.97 101.76 194.05C101.398 186.72 102.969 179.424 106.316 172.893C109.663 166.362 114.668 160.826 120.83 156.84C124.456 154.437 128.448 152.637 132.65 151.51L135.1 150.86L137.3 150.5L139.18 150.19C139.76 150.12 140.29 150.11 140.76 150.07L142.91 149.91C143.168 149.899 143.425 149.873 143.68 149.83Z" fill="#263238"/>
</svg>
