<svg width="512" height="550" viewBox="0 0 512 550" fill="none" xmlns="http://www.w3.org/2000/svg">
<g clip-path="url(#clip0_131_454)">
<path d="M412.93 492.596C387.962 476.252 381.622 444.964 381.9 416.695C381.946 411.975 381.301 407.017 383.472 402.827C385.644 398.636 390.876 395.683 395.202 397.567C398.789 399.129 400.437 403.165 402.504 406.487C405.254 410.905 409.278 414.521 413.966 416.782C417.048 418.266 420.833 419.129 423.797 417.421C427.864 415.08 428.212 409.451 428.066 404.759C427.797 396.023 427.528 387.284 427.258 378.545C427.113 373.857 426.981 369.071 428.35 364.583C429.72 360.097 432.882 355.885 437.372 354.527C441.861 353.171 447.514 355.609 448.581 360.176C449.025 362.077 448.678 364.069 448.858 366.012C449.038 367.955 450.01 370.087 451.897 370.585C453.806 371.089 455.674 369.713 457.062 368.308C461.85 363.456 465.029 357.277 467.99 351.137C470.952 344.997 473.818 338.716 478.141 333.445C482.464 328.175 488.52 323.935 495.314 323.392C502.11 322.849 509.461 326.821 511.342 333.373C513.229 339.943 509.485 346.744 505.364 352.196C499.25 360.288 491.958 367.487 483.792 373.499C482.32 374.583 480.724 375.756 480.193 377.507C479.238 380.656 482.317 383.692 485.468 384.644C489.04 385.723 492.873 385.268 496.588 385.611C500.304 385.953 504.357 387.469 505.844 390.891C507.906 395.639 503.968 400.759 500.053 404.144C492.212 410.924 483.2 416.349 473.538 420.105C470.073 421.453 466.424 422.647 463.665 425.137C460.905 427.631 459.308 431.884 461.09 435.145C462.876 438.413 467.273 439.364 470.917 438.607C474.561 437.851 477.79 435.809 481.248 434.427C487.718 431.839 496.161 432.083 500.48 437.551C503.318 441.145 503.685 446.239 502.401 450.636C501.118 455.032 498.392 458.859 495.484 462.396C485.316 474.764 472.157 484.84 457.137 490.385C442.116 495.931 428.116 497.669 412.93 492.596" fill="#0EA5E9" fill-opacity="0.1"/>
<path d="M504.321 327.105C504.321 327.105 504.175 327.266 503.865 327.556C503.531 327.861 503.069 328.284 502.479 328.824C501.257 329.936 499.457 331.579 497.201 333.755C492.68 338.095 486.34 344.621 479.503 353.508C476.069 357.937 472.513 362.946 468.793 368.389C465.085 373.842 461.16 379.693 457.267 386C453.372 392.301 449.484 399.049 446.025 406.325C444.28 409.956 442.737 413.749 441.167 417.613C439.601 421.476 438.015 425.396 436.408 429.361C430.043 445.249 424.477 460.597 420.587 474.904C416.668 489.197 414.456 502.415 413.624 513.585C412.768 524.764 413.232 533.858 413.856 540.089C414.185 543.205 414.493 545.623 414.761 547.251C414.877 548.042 414.968 548.66 415.035 549.109C415.093 549.529 415.104 549.748 415.104 549.748C415.104 549.748 414.316 546.36 413.581 540.12C412.873 533.884 412.329 524.766 413.125 513.549C413.895 502.34 416.063 489.072 419.956 474.732C423.823 460.381 429.381 444.997 435.751 429.099C437.359 425.132 438.947 421.21 440.513 417.346C442.084 413.49 443.641 409.672 445.399 406.026C448.883 398.722 452.793 391.961 456.711 385.655C460.627 379.347 464.576 373.5 468.309 368.057C472.055 362.622 475.641 357.621 479.108 353.2C486.013 344.331 492.427 337.838 497.011 333.556C499.301 331.406 501.131 329.796 502.385 328.717C502.996 328.199 503.471 327.796 503.817 327.501C504.143 327.231 504.321 327.105 504.321 327.105" fill="#082F49" fill-opacity="0.4"/>
<path d="M445.575 405.953C445.527 405.962 445.357 405.25 445.093 403.958C444.823 402.666 444.487 400.786 444.103 398.46C443.331 393.804 442.476 387.342 441.552 380.213C440.627 373.081 439.663 366.648 438.791 362.022C438.363 359.706 437.993 357.837 437.719 356.549C437.451 355.26 437.325 354.54 437.373 354.526C437.42 354.516 437.636 355.213 437.987 356.485C438.344 357.756 438.789 359.616 439.281 361.924C440.283 366.538 441.329 372.982 442.255 380.121C443.161 387.189 443.981 393.584 444.597 398.385C444.907 400.62 445.167 402.477 445.365 403.913C445.547 405.217 445.623 405.944 445.575 405.953" fill="#082F49" fill-opacity="0.4"/>
<path d="M506.386 393.226C506.388 393.25 506.17 393.29 505.76 393.344C505.264 393.398 504.669 393.464 503.954 393.541C502.389 393.705 500.122 393.938 497.333 394.318C491.75 395.032 484.072 396.3 475.666 398.07C467.262 399.858 459.728 401.804 454.322 403.374C451.613 404.141 449.44 404.822 447.934 405.288C447.246 405.496 446.673 405.67 446.197 405.814C445.797 405.928 445.584 405.976 445.574 405.953C445.566 405.929 445.765 405.837 446.15 405.68C446.614 405.501 447.173 405.285 447.845 405.026C449.325 404.481 451.481 403.725 454.177 402.894C459.558 401.197 467.096 399.169 475.521 397.377C483.945 395.601 491.66 394.41 497.274 393.821C500.077 393.505 502.357 393.346 503.933 393.266C504.653 393.241 505.25 393.218 505.749 393.2C506.165 393.193 506.385 393.201 506.386 393.226" fill="#082F49" fill-opacity="0.4"/>
<path d="M420.608 473.584C420.585 473.595 420.441 473.343 420.187 472.853C419.904 472.29 419.545 471.575 419.101 470.691C418.165 468.809 416.877 466.056 415.329 462.635C412.225 455.794 408.231 446.213 403.957 435.585C399.681 424.956 395.765 415.357 392.783 408.471C391.305 405.096 390.097 402.336 389.22 400.329C388.825 399.423 388.505 398.689 388.256 398.113C388.043 397.603 387.941 397.329 387.963 397.319C387.985 397.308 388.129 397.561 388.385 398.052C388.667 398.613 389.025 399.329 389.469 400.213C390.405 402.093 391.692 404.848 393.24 408.269C396.344 415.111 400.339 424.691 404.613 435.321C408.889 445.948 412.805 455.545 415.787 462.432C417.265 465.805 418.473 468.568 419.351 470.575C419.745 471.48 420.064 472.215 420.315 472.792C420.528 473.301 420.629 473.575 420.608 473.584" fill="#082F49" fill-opacity="0.4"/>
<path d="M501.15 445.825C501.157 445.848 500.881 445.963 500.348 446.157C499.741 446.37 498.964 446.641 498.004 446.977C495.881 447.707 492.952 448.712 489.37 449.941C482.085 452.452 472.062 456.043 461 460.037C449.934 464.032 439.878 467.553 432.546 469.944C428.88 471.141 425.905 472.083 423.837 472.694C422.86 472.978 422.069 473.209 421.453 473.389C420.905 473.54 420.614 473.608 420.608 473.584C420.6 473.561 420.877 473.448 421.41 473.252C422.016 473.04 422.792 472.768 423.753 472.432C425.876 471.703 428.804 470.699 432.386 469.471C439.672 466.96 449.694 463.365 460.761 459.371C471.824 455.377 481.88 451.858 489.21 449.466C492.877 448.27 495.852 447.328 497.92 446.716C498.896 446.431 499.686 446.2 500.304 446.021C500.852 445.87 501.142 445.803 501.15 445.825" fill="#082F49" fill-opacity="0.4"/>
<path d="M81.5674 288.083L104.175 354.148H206.547L205.792 350.747L164.398 349.467L145.327 288.047L81.5674 288.083" fill="#0EA5E9" fill-opacity="0.1"/>
<path d="M126.931 319.113C127.607 321.82 126.447 324.47 124.341 325.034C122.235 325.598 119.98 323.86 119.304 321.153C118.628 318.446 119.787 315.796 121.894 315.232C124 314.669 126.255 316.406 126.931 319.113Z" fill="white"/>
<path d="M309.022 431.016L343.041 547.787H347.129L321.025 430.615L309.022 431.016" fill="#0284C7" fill-opacity="0.3" style="mix-blend-mode:multiply"/>
<path d="M246.536 431.603L220.2 547.745H224.872L260.122 431.566L246.536 431.603" fill="#0284C7" fill-opacity="0.3" style="mix-blend-mode:multiply"/>
<path d="M277.354 428.921L281.384 547.745H286.908L289.334 429.38L277.354 428.921Z" fill="#0284C7" fill-opacity="0.3" style="mix-blend-mode:multiply"/>
<path d="M245.315 478.625L324.301 476.149L324.824 484.328L239.387 487.604L245.315 478.625Z" fill="#0284C7" fill-opacity="0.3" style="mix-blend-mode:multiply"/>
<path d="M246.492 431.566L245.28 437.576H258.351L259.983 431.566H246.492Z" fill="#082F49" fill-opacity="0.4"/>
<path d="M277.32 429.251L277.603 437.576H289.192L289.334 430.7L277.32 429.251Z" fill="#082F49" fill-opacity="0.4"/>
<path d="M278.992 477.569L279.28 486.075L273.154 486.309L271.154 477.815L278.992 477.569" fill="#082F49" fill-opacity="0.4"/>
<path d="M288.355 477.121L288.178 485.763L292.971 485.58L294.076 477.121H288.355Z" fill="#082F49" fill-opacity="0.4"/>
<path d="M308.508 429.251L310.258 435.26H322.058L320.76 429.421L308.508 429.251" fill="#082F49" fill-opacity="0.4"/>
<path d="M220.341 423.359C231.575 417.853 276.969 420.818 276.969 420.818C276.969 420.818 264.152 261.696 280.724 260.423C297.297 259.148 334.835 247.216 341.607 271.28C348.72 296.567 339.103 431.757 329.607 430.448C307.947 427.46 241.155 435.194 221.045 430.46C215.863 429.24 220.341 423.359 220.341 423.359" fill="#0EA5E9" fill-opacity="0.1"/>
<path d="M327.326 274.026C327.396 273.988 327.716 274.422 328.262 275.298C328.548 275.73 328.844 276.293 329.19 276.962C329.553 277.626 329.906 278.42 330.3 279.318C331.864 282.912 333.478 288.434 334.213 295.406C334.985 302.377 335.033 310.681 334.88 319.87C334.72 329.069 334.164 339.166 333.338 349.737C332.5 360.309 331.488 370.357 330.53 379.482C329.588 388.606 328.661 396.857 327.376 403.716C326.117 410.581 324.553 416.03 323.233 419.701C321.904 423.372 320.91 425.293 320.784 425.241C320.612 425.173 321.32 423.144 322.372 419.427C323.413 415.706 324.716 410.269 325.753 403.442C326.82 396.618 327.572 388.414 328.397 379.273C329.237 370.137 330.184 360.097 331.021 349.554C331.842 339.014 332.462 328.966 332.736 319.817C333.008 310.67 333.126 302.416 332.576 295.564C332.06 288.697 330.729 283.268 329.454 279.644C328.178 276.018 327.152 274.124 327.326 274.026" fill="#082F49" fill-opacity="0.4"/>
<path d="M318.837 425.045C318.706 425.706 308.385 424.084 295.584 423.058C282.78 421.99 272.334 421.915 272.312 421.241C272.277 420.632 282.809 419.661 295.773 420.741C308.736 421.781 318.972 424.451 318.837 425.045Z" fill="#082F49" fill-opacity="0.4"/>
<path d="M27.209 353.172H390.156V365.061H27.209V353.172Z" fill="#0EA5E9" fill-opacity="0.1"/>
<path d="M55.5945 365.061L27.209 547.636L41.4018 547.896L90.1116 365.061H55.5945Z" fill="#0284C7" fill-opacity="0.3" style="mix-blend-mode:multiply"/>
<path d="M363.732 363.096L380.32 547.787H367.104L331.303 370.747L329.435 357.597L363.732 363.096" fill="#0284C7" fill-opacity="0.3" style="mix-blend-mode:multiply"/>
<path d="M330.496 365.061L331.815 373.276L364.537 372.059L363.909 365.061H330.496" fill="#082F49" fill-opacity="0.4"/>
<path d="M55.5947 365.061L54.2578 373.472L88.0759 372.533L90.1119 365.061H55.5947Z" fill="#082F49" fill-opacity="0.4"/>
<path d="M40.417 354.821V340.581L47.591 338.997L40.417 334.565V321.097H116.941V329.166L121.264 329.149C120.555 329.952 122.657 330.917 121.735 331.256C120.185 331.828 116.463 332.72 116.463 332.72L117.419 338.33L113.115 339.296L118.854 343.325L119.811 353.929L40.417 355.565" fill="#082F49" fill-opacity="0.4"/>
<path d="M33.4238 354.821V340.581L40.5982 338.997L33.4238 334.565V321.097H109.948V329.166L114.271 329.149C113.562 329.952 115.664 330.917 114.742 331.256C113.191 331.828 109.47 332.72 109.47 332.72L110.426 338.33L106.122 339.296L111.861 343.325L112.818 353.929L33.4238 355.565" fill="#0EA5E9" fill-opacity="0.1"/>
<path d="M389.256 342.8C387.826 343.872 385.262 343.707 383.592 343.407C384.538 340.881 385.003 338.295 385.223 336.128C386.371 336.057 388.302 336.152 389.422 337.099C390.111 337.681 390.444 338.557 390.444 339.779C390.444 341.212 390.056 342.199 389.256 342.8ZM391.554 334.576C389.638 332.957 387.02 332.749 385.407 332.805C385.416 331.623 385.363 330.892 385.363 330.892H351.843C351.843 330.892 350.79 353.024 367.736 353.805C375.322 354.155 379.663 350.756 382.147 346.479C382.956 346.672 384.366 346.941 385.948 346.941C387.715 346.941 389.682 346.604 391.228 345.449C392.379 344.591 393.748 342.911 393.748 339.779C393.748 337.011 392.555 335.421 391.554 334.576Z" fill="#0EA5E9" fill-opacity="0.1"/>
<path d="M49.8831 162.36H137.429L151.801 176.236L149.765 161.268H171.834V109.544L49.8831 112.102V162.36ZM153.638 179.864L136.89 163.693H48.5498V110.796L173.168 108.182V162.601H151.292L153.638 179.864" fill="#082F49" fill-opacity="0.4"/>
<path d="M106.623 129.004H64.9814V124.119H106.623V129.004Z" fill="#082F49" fill-opacity="0.4"/>
<path d="M157.776 140.16H64.9814V135.274H157.776V140.16Z" fill="#082F49" fill-opacity="0.4"/>
<path d="M157.776 149.851H64.9814V144.965H157.776V149.851Z" fill="#082F49" fill-opacity="0.4"/>
<path d="M108.778 5.07038L111.313 73.8037H215.084L310.474 41.8304V-0.00159065L108.778 5.07038Z" fill="#082F49" fill-opacity="0.4"/>
<path d="M215.603 33.2277L216.445 89.5917H304.577C304.577 89.5917 313.096 128.778 313.131 126.632C313.165 124.484 323.901 89.0544 323.901 89.0544L437.704 87.9811V30.5437L215.603 33.2277" fill="#0EA5E9" fill-opacity="0.1"/>
<path d="M413.847 57.8398H239.46V52.3185H413.847V57.8398Z" fill="white"/>
<path d="M413.847 70.832H239.46V65.3094H413.847V70.832Z" fill="white"/>
<path d="M445.313 548.061C445.313 548.252 345.619 548.409 222.667 548.409C99.674 548.409 0 548.252 0 548.061C0 547.87 99.674 547.713 222.667 547.713C345.619 547.713 445.313 547.87 445.313 548.061Z" fill="#17282F"/>
<path d="M110.545 370.5C102.992 371.714 99.6162 380.996 100.276 388.617C100.936 396.238 104.069 403.689 103.231 411.292C102.167 420.948 94.8698 429.109 94.0203 438.786C93.0178 450.198 101.086 460.321 103.497 471.522C104.669 476.97 104.505 482.734 106.535 487.925C109.956 496.68 119.989 502.301 129.241 500.648C138.494 498.996 145.96 490.249 146.138 480.852C146.306 472.088 140.898 463.834 141.556 455.094C142.041 448.634 145.828 442.513 145.017 436.085C144.053 428.438 136.966 423.008 134.465 415.716C131.964 408.422 134.366 400.386 133.504 392.724C131.955 378.978 124.333 369.397 110.545 370.5" fill="#BE185D"/>
<path d="M71.9782 437.053C70.6928 449.789 76.325 464.773 82.8746 475.77C89.4246 486.769 99.5772 495.58 111.387 500.518C112.719 501.076 114.377 501.542 115.497 500.634C116.416 499.888 116.53 498.551 116.538 497.366C116.628 483.965 112.267 470.57 104.302 459.79C96.3376 449.009 84.8152 440.905 71.9782 437.053" fill="#BE185D"/>
<path d="M113.916 501.146C113.079 501.146 112.176 500.848 111.387 500.518C99.5773 495.58 89.4247 486.769 82.8747 475.77C76.9585 465.836 71.7909 452.649 71.7939 440.804C71.7945 439.537 71.8538 438.284 71.9784 437.053C84.8153 440.905 96.3377 449.009 104.302 459.79C112.189 470.465 116.542 483.704 116.539 496.975C116.539 497.105 116.539 497.236 116.538 497.366C116.536 497.769 116.52 498.189 116.466 498.599C116.36 499.392 116.104 500.141 115.498 500.634C115.04 501.005 114.494 501.146 113.916 501.146" fill="#F472BE" fill-opacity="0.768627"/>
<path d="M127.459 527.148C127.436 527.157 127.312 526.913 127.096 526.439C126.856 525.889 126.555 525.199 126.187 524.353C125.422 522.533 124.278 519.916 122.821 516.701C119.913 510.272 115.602 501.52 110.175 492.221C104.736 482.927 99.2238 474.875 95.0498 469.187C92.9654 466.339 91.2462 464.057 90.0358 462.497C89.4795 461.761 89.0263 461.161 88.6643 460.683C88.3576 460.261 88.205 460.033 88.2243 460.018C88.244 460.002 88.4342 460.199 88.7779 460.589C89.167 461.047 89.656 461.62 90.2555 462.321C91.5352 463.829 93.3186 466.066 95.4602 468.88C99.7476 474.501 105.344 482.533 110.801 491.858C116.242 501.183 120.494 509.999 123.288 516.494C124.689 519.741 125.763 522.394 126.448 524.249C126.766 525.115 127.025 525.821 127.231 526.385C127.403 526.877 127.482 527.139 127.459 527.148" fill="#17282F"/>
<path d="M119.26 405.736C119.286 405.735 119.332 406.155 119.398 406.957C119.461 407.821 119.546 408.991 119.652 410.465C119.852 413.58 120.135 417.971 120.482 423.37C121.17 434.266 122.136 449.32 123.305 465.939C124.477 482.563 125.628 497.603 126.474 508.489C126.886 513.883 127.221 518.271 127.459 521.384C127.56 522.858 127.64 524.027 127.698 524.892C127.745 525.694 127.758 526.117 127.733 526.12C127.708 526.121 127.647 525.703 127.553 524.905C127.461 524.043 127.336 522.876 127.179 521.409C126.886 518.3 126.472 513.917 125.964 508.532C124.988 497.655 123.755 482.617 122.583 465.989C121.415 449.366 120.529 434.305 119.971 423.399C119.72 417.995 119.516 413.597 119.371 410.479C119.321 409.003 119.282 407.831 119.252 406.965C119.233 406.16 119.235 405.737 119.26 405.736" fill="#17282F"/>
<path d="M107.545 508.985H139.441V532.403C139.441 540.86 132.586 547.713 124.13 547.713C115.991 547.713 109.275 541.348 108.84 533.22L107.545 508.985Z" fill="#17282F"/>
<path d="M451.944 156.785C447.326 183.4 422.006 201.232 395.392 196.613C381.698 194.237 370.34 186.373 363.16 175.678L339.986 179.272L355.678 157.457C354.626 151.865 354.534 145.996 355.564 140.06C360.181 113.446 385.501 95.6144 412.116 100.232C438.73 104.85 456.562 130.17 451.944 156.785" fill="#BE185D"/>
<path d="M339.438 184.999C337.058 184.275 332.795 197.092 332.114 193.805C331.432 190.52 339.15 178.736 336.632 178.081C333.35 177.228 329.134 190.728 328.692 191.845C328.264 192.928 326.623 192.361 327.075 191.376C327.724 189.957 334.187 174.895 330.972 174.027C329.19 173.545 328.622 176.825 328.622 176.825C328.622 176.825 323.614 191.363 322.11 190.903C320.583 190.435 323.236 181.801 324.336 178.952C325.424 176.137 324.527 174.475 322.882 175.029C321.758 175.408 318.182 184.051 317.16 186.893C316.138 189.736 313.472 197.581 311.639 192.644C309.807 187.707 306.539 184.603 305.07 184.379C303.602 184.155 302.754 186.116 303.912 187.272C304.847 188.204 305.924 190.243 306.67 191.805C307.286 193.097 307.688 194.48 307.836 195.903C308.408 201.383 308.048 204.492 308.048 204.492L308.084 205.293L292.227 244.548L274.616 205.947C268.974 187.2 245.682 186.428 245.682 186.428L222.595 183.931C214.248 180.725 204.926 181.241 199.735 184.231C193.116 188.044 188.623 194.688 187.104 202.173C181.792 228.335 163.262 322.015 161.732 363.043H161.807C160.812 368.133 159.888 373.455 159.691 376.556C159.239 383.668 159.875 383.717 160.714 383.629C162.962 383.391 161.982 371.148 163.719 373.657C165.455 376.167 163.175 388.769 165.515 388.424C168.566 387.973 167.304 375.177 167.278 374.085C167.252 373.027 168.827 372.919 168.799 373.905C168.758 375.323 168.692 390.224 171.692 389.809C173.355 389.581 172.666 386.635 172.666 386.635C172.666 386.635 171.7 372.688 173.123 372.539C174.566 372.389 175.41 380.559 175.499 383.333C175.587 386.076 176.927 387.147 178.11 386.1C178.915 385.385 178.842 376.88 178.69 374.139C178.538 371.397 177.984 363.884 181.271 367.365C184.555 370.849 188.392 372.288 189.702 371.955C191.01 371.621 191.024 369.679 189.644 369.123C188.526 368.672 186.89 367.336 185.708 366.288C184.756 365.444 183.944 364.456 183.327 363.344C183.126 362.981 182.956 362.653 182.778 362.316C183.282 354.517 187.872 287.512 199.676 241.587L201.902 235.863C204.212 245.177 202.834 264.296 197.942 272.551C189.838 286.224 190.479 319.84 190.479 319.84L264.995 322.665C264.995 322.665 264.415 310.301 263.756 294.524L262.107 248.096L262.299 239.193L262.644 238.264C266.235 244.009 270.743 251.389 276.315 260.788C294.83 292.027 310.451 254.843 310.451 254.843L326.284 210.06C330.276 204.305 335.38 196.707 337.438 192.6C340.946 185.592 340.324 185.267 339.438 184.999" fill="#F4A89B"/>
<path d="M224.805 542.373V530.323L202.232 530.178L202.045 547.808L203.444 547.908C209.67 548.293 235.132 549.429 239.304 548.193C243.956 546.815 224.805 542.373 224.805 542.373" fill="#BE185D"/>
<path d="M239.837 547.09C239.837 547.304 231.393 547.476 220.98 547.476C210.564 547.476 202.121 547.304 202.121 547.09C202.121 546.877 210.564 546.704 220.98 546.704C231.393 546.704 239.837 546.877 239.837 547.09Z" fill="#17282F"/>
<path d="M225.202 544.833C225.017 544.732 225.18 544.082 225.665 543.454C226.15 542.823 226.737 542.501 226.881 542.653C227.03 542.809 226.721 543.345 226.277 543.925C225.83 544.502 225.39 544.939 225.202 544.833" fill="#17282F"/>
<path d="M226.643 545.628C226.447 545.551 226.549 544.825 226.995 544.073C227.439 543.318 228.023 542.876 228.184 543.011C228.352 543.147 228.069 543.766 227.66 544.465C227.248 545.16 226.843 545.708 226.643 545.628" fill="#17282F"/>
<path d="M208.923 547.01C208.835 547.074 208.496 546.756 208.002 546.221C207.506 545.693 206.854 544.944 206.004 544.321C205.16 543.705 204.248 543.397 203.574 543.317C202.895 543.229 202.45 543.322 202.414 543.21C202.375 543.127 202.79 542.825 203.588 542.772C204.376 542.71 205.491 542.987 206.459 543.697C207.419 544.404 208.04 545.265 208.436 545.889C208.828 546.522 209.007 546.948 208.923 547.01" fill="#17282F"/>
<path d="M225.271 542.568C225.379 542.749 224.986 543.178 224.343 543.404C223.7 543.63 223.126 543.541 223.096 543.333C223.064 543.12 223.522 542.875 224.087 542.674C224.654 542.477 225.163 542.381 225.271 542.568" fill="#17282F"/>
<path d="M224.916 541.404C224.936 541.616 224.335 541.797 223.573 541.807C222.812 541.818 222.205 541.652 222.22 541.439C222.233 541.227 222.835 541.045 223.563 541.035C224.291 541.027 224.897 541.192 224.916 541.404" fill="#17282F"/>
<path d="M248.619 538.103L252.187 526.592L230.668 519.771L225.271 536.554L226.577 537.064C232.41 539.275 256.393 547.899 260.744 547.953C265.596 548.015 248.619 538.103 248.619 538.103" fill="#BE185D"/>
<path d="M261.58 547.059C261.517 547.261 253.401 544.927 243.455 541.844C233.504 538.759 225.493 536.094 225.556 535.892C225.619 535.689 233.733 538.023 243.683 541.106C253.629 544.191 261.644 546.854 261.58 547.059" fill="#17282F"/>
<path d="M248.27 540.569C248.123 540.417 248.471 539.846 249.122 539.389C249.771 538.929 250.426 538.796 250.52 538.984C250.616 539.177 250.163 539.597 249.566 540.02C248.968 540.439 248.419 540.725 248.27 540.569" fill="#17282F"/>
<path d="M249.411 541.753C249.245 541.622 249.559 540.961 250.207 540.373C250.855 539.784 251.543 539.534 251.657 539.71C251.776 539.89 251.324 540.398 250.727 540.944C250.127 541.487 249.577 541.889 249.411 541.753" fill="#17282F"/>
<path d="M232.076 537.828C231.972 537.863 231.743 537.46 231.43 536.803C231.112 536.149 230.711 535.243 230.084 534.397C229.46 533.559 228.68 532.994 228.059 532.718C227.438 532.432 226.984 532.39 226.982 532.272C226.971 532.182 227.458 532.016 228.235 532.2C229.006 532.376 229.988 532.971 230.703 533.935C231.411 534.894 231.748 535.901 231.943 536.613C232.13 537.335 232.174 537.795 232.076 537.828" fill="#17282F"/>
<path d="M249.005 538.425C249.055 538.631 248.553 538.924 247.872 538.948C247.191 538.975 246.668 538.72 246.703 538.512C246.735 538.3 247.244 538.201 247.843 538.177C248.443 538.156 248.957 538.215 249.005 538.425Z" fill="#17282F"/>
<path d="M249.012 537.208C248.968 537.416 248.34 537.412 247.609 537.196C246.879 536.98 246.349 536.642 246.425 536.444C246.503 536.245 247.131 536.249 247.829 536.456C248.527 536.663 249.056 537 249.012 537.208" fill="#17282F"/>
<path d="M245.245 187.852C244.897 185.348 246.244 174.925 246.244 174.925C246.244 174.925 255.821 174.221 256.705 164.773C257.588 155.327 257.711 133.479 257.711 133.479L240.597 124.42L221.007 138.296L215.897 149.249L222.408 173.299L222.385 185.717L245.245 187.852" fill="#F4A89B"/>
<path d="M256.516 148.045C256.594 147.979 256.478 147.669 256.099 147.312C255.727 146.96 255.066 146.585 254.255 146.511C253.444 146.435 252.724 146.679 252.295 146.959C251.856 147.239 251.684 147.521 251.75 147.601C251.88 147.78 252.882 147.165 254.182 147.296C254.352 147.311 254.515 147.337 254.67 147.372C254.295 147.569 254.024 147.939 254.01 148.392C253.988 149.061 254.514 149.621 255.183 149.641C255.851 149.664 256.412 149.139 256.434 148.471C256.438 148.319 256.407 148.176 256.36 148.04L256.516 148.045" fill="#17282F"/>
<path d="M242.055 147.583C242.133 147.516 242.017 147.204 241.639 146.849C241.268 146.495 240.607 146.121 239.795 146.045C238.984 145.971 238.265 146.215 237.835 146.493C237.396 146.773 237.225 147.057 237.289 147.137C237.42 147.316 238.421 146.7 239.721 146.832C239.947 146.852 240.155 146.896 240.353 146.947C240.165 147.029 239.989 147.143 239.86 147.32C239.464 147.86 239.581 148.62 240.121 149.016C240.661 149.411 241.42 149.293 241.815 148.753C242.072 148.403 242.092 147.967 241.941 147.589L242.055 147.583" fill="#17282F"/>
<path d="M246.406 158.749C246.406 158.677 247.225 158.605 248.55 158.549C248.882 158.544 249.21 158.505 249.286 158.264C249.386 158.013 249.269 157.624 249.136 157.205C248.88 156.34 248.61 155.429 248.328 154.473C247.212 150.588 246.42 147.406 246.56 147.365C246.63 147.345 246.921 148.114 247.333 149.373C247.745 150.634 248.28 152.384 248.838 154.326C249.106 155.286 249.362 156.201 249.605 157.072C249.705 157.477 249.89 157.941 249.69 158.44C249.585 158.688 249.333 158.852 249.12 158.892C248.904 158.941 248.717 158.928 248.552 158.925C247.226 158.885 246.408 158.824 246.406 158.749" fill="#17282F"/>
<path d="M242.058 159.846C243.109 160.24 245.634 162.134 248.296 162.22C248.296 162.22 246.577 164.526 243.932 163.308C241.186 162.042 242.058 159.846 242.058 159.846Z" fill="white"/>
<path d="M246.244 174.925C246.244 174.925 239.867 174.792 233.839 170.287C233.839 170.287 236.458 177.328 245.963 177.241L246.244 174.925Z" fill="#F2716A"/>
<path d="M264.084 119.373C262.805 117.944 260.652 117.624 258.764 117.961C256.876 118.296 255.137 119.177 253.327 119.809C251.517 120.443 249.497 120.823 247.704 120.145C245.24 119.213 243.881 116.588 241.757 115.032C239.896 113.669 237.417 113.187 235.181 113.755C232.945 114.324 230.997 115.929 230.013 118.017C228.953 120.264 228.729 123.281 226.495 124.369C224.699 125.244 222.607 124.329 220.695 123.752C218.927 123.215 216.997 122.98 215.244 123.561C213.489 124.143 211.972 125.687 211.848 127.531C211.733 129.219 212.748 130.819 212.693 132.509C212.611 135.083 210.193 136.881 207.979 138.193C205.763 139.505 203.265 141.063 202.827 143.599C202.456 145.745 203.753 147.845 205.329 149.349C206.903 150.853 208.805 152.013 210.213 153.675C211.621 155.336 212.457 157.776 211.439 159.7C210.927 160.667 209.991 161.428 209.772 162.499C209.408 164.288 211.165 165.74 212.745 166.653C214.412 167.617 216.175 168.521 218.088 168.736C218.841 168.819 219.623 168.769 220.365 168.591C221.663 172.384 222.459 175.589 222.459 175.589C224.041 178.165 224.047 169.764 224.047 169.764C224.047 169.764 224.819 161.647 223.527 158.573C223.527 158.573 218.719 160.435 217.119 151.708C216.328 147.397 222.769 144.943 224.851 150.097L228.965 150.244C228.965 150.244 228.485 133.395 237.971 136.303C254.719 141.433 263.699 136.036 264.861 122.441L264.808 122.455C265.049 121.408 264.813 120.189 264.084 119.373" fill="#17282F"/>
<path d="M223.153 155.925C223.116 155.903 223.018 156.032 222.788 156.155C222.562 156.275 222.169 156.372 221.738 156.241C220.868 155.979 220.069 154.671 219.942 153.22C219.876 152.487 219.988 151.779 220.213 151.184C220.422 150.58 220.78 150.143 221.204 150.041C221.625 149.916 221.944 150.155 222.056 150.376C222.178 150.595 222.137 150.759 222.18 150.771C222.204 150.789 222.345 150.625 222.26 150.296C222.217 150.137 222.11 149.953 221.913 149.809C221.709 149.664 221.42 149.601 221.122 149.651C220.504 149.732 219.978 150.339 219.73 150.991C219.449 151.648 219.306 152.445 219.381 153.268C219.53 154.889 220.454 156.36 221.641 156.627C222.217 156.741 222.68 156.54 222.913 156.336C223.15 156.121 223.182 155.939 223.153 155.925" fill="#F2716A"/>
<path d="M233.316 494.075C232.721 438.424 231.918 349.444 232.732 337.867C232.732 337.867 254.56 415.529 254.766 422.104C254.892 426.103 242.806 464.556 233.316 494.075ZM264.346 304.271L234.729 301.996L189.837 298.359L194.857 539.466L233.829 538.956C233.829 538.956 233.796 536.275 233.74 531.566L256.584 537.817C256.584 537.817 278.853 462.6 286.445 431.727C292.777 405.975 264.346 304.271 264.346 304.271" fill="#17282F"/>
<path d="M233.316 494.075L238.508 477.832C236.751 483.365 234.992 488.86 233.316 494.075" fill="#082F49" fill-opacity="0.4"/>
<path d="M240.032 533.288L233.74 531.566L233.316 494.075C234.992 488.86 236.751 483.365 238.508 477.832V477.829L240.032 533.288" fill="#111D23"/>
<path d="M232.245 337.596C232.123 337.526 233.141 335.957 234.013 333.122C234.919 330.301 235.464 326.208 235.416 321.669C235.368 317.126 235.08 312.982 235.183 309.976C235.22 308.473 235.309 307.258 235.417 306.424C235.523 305.589 235.623 305.134 235.673 305.138C235.792 305.15 235.653 306.996 235.728 309.976C235.765 312.958 236.137 317.072 236.189 321.665C236.239 326.257 235.593 330.45 234.531 333.294C234.016 334.718 233.465 335.818 233.021 336.537C232.58 337.257 232.285 337.622 232.245 337.596" fill="#33535F"/>
<path d="M228.122 307.101C228.098 307.067 228.268 306.865 228.698 306.693C229.121 306.521 229.833 306.417 230.638 306.7C231.422 306.951 232.356 307.749 232.48 308.951C232.624 310.085 232.086 311.477 230.813 312.1C229.517 312.679 228.106 312.193 227.329 311.353C226.489 310.484 226.482 309.251 226.801 308.493C227.109 307.696 227.65 307.223 228.057 307.015C228.47 306.803 228.733 306.804 228.744 306.847C228.82 306.952 227.744 307.257 227.318 308.667C227.118 309.335 227.19 310.237 227.841 310.86C228.453 311.485 229.581 311.819 230.486 311.401C231.388 310.975 231.857 309.897 231.773 309.027C231.714 308.127 231.073 307.488 230.434 307.207C229.088 306.616 228.153 307.229 228.122 307.101" fill="#33535F"/>
<path d="M267.184 316.191C267.226 316.256 266.255 316.92 264.422 317.26C262.622 317.611 259.89 317.487 257.38 316.051C254.874 314.604 253.392 312.304 252.788 310.575C252.16 308.819 252.244 307.645 252.324 307.648C252.455 307.631 252.57 308.756 253.294 310.368C253.996 311.965 255.45 314.045 257.766 315.381C260.083 316.708 262.612 316.917 264.346 316.72C266.103 316.535 267.135 316.067 267.184 316.191" fill="#33535F"/>
<path d="M206.593 301.708C206.637 301.694 206.797 302.049 206.972 302.726C207.15 303.404 207.304 304.416 207.282 305.674C207.269 308.158 206.306 311.785 203.541 314.581C200.757 317.36 197.133 318.336 194.649 318.36C193.389 318.386 192.377 318.238 191.701 318.062C191.022 317.889 190.668 317.732 190.681 317.688C190.709 317.544 192.201 318.002 194.62 317.814C197 317.654 200.388 316.638 202.994 314.036C205.585 311.418 206.586 308.028 206.737 305.648C206.914 303.228 206.449 301.738 206.593 301.708" fill="#33535F"/>
<path d="M234.04 529.797C234.04 530.011 225.324 530.183 214.572 530.183C203.819 530.183 195.103 530.011 195.103 529.797C195.103 529.583 203.819 529.412 214.572 529.412C225.324 529.412 234.04 529.583 234.04 529.797Z" fill="#33535F"/>
<path d="M200.212 530.361C199.998 530.362 199.393 482.811 198.86 424.165C198.326 365.498 198.066 317.954 198.28 317.953C198.493 317.95 199.098 365.492 199.632 424.158C200.165 482.804 200.425 530.36 200.212 530.361" fill="#33535F"/>
<path d="M234.562 503.502C234.55 503.499 234.584 503.348 234.662 503.054C234.756 502.723 234.877 502.297 235.029 501.761C235.384 500.582 235.881 498.924 236.513 496.816C237.849 492.478 239.756 486.294 242.105 478.669C244.497 471.001 247.338 461.894 250.493 451.787C252.08 446.729 253.745 441.421 255.47 435.92C256.336 433.169 257.217 430.37 258.109 427.528C258.528 426.123 259.073 424.648 259.394 423.268C259.445 421.942 259.112 420.365 258.825 418.904C257.556 412.944 255.937 407.187 254.397 401.633C252.838 396.081 251.277 390.741 249.772 385.66C246.756 375.499 243.965 366.368 241.61 358.705C239.261 351.083 237.356 344.896 236.018 340.56C235.378 338.455 234.876 336.8 234.517 335.62C234.362 335.085 234.238 334.661 234.142 334.329C234.062 334.037 234.028 333.887 234.041 333.883C234.053 333.879 234.113 334.023 234.218 334.305C234.333 334.632 234.48 335.048 234.665 335.573C235.056 336.743 235.606 338.381 236.305 340.469C237.697 344.788 239.684 350.949 242.132 358.543C244.553 366.188 247.398 375.303 250.453 385.457C251.978 390.535 253.556 395.872 255.125 401.427C256.677 406.988 258.301 412.739 259.581 418.749C259.733 419.502 259.886 420.253 259.994 421.018C260.057 421.397 260.117 421.777 260.141 422.172C260.177 422.559 260.221 422.944 260.156 423.401C259.794 424.944 259.276 426.301 258.848 427.744C257.949 430.584 257.065 433.383 256.196 436.133C254.454 441.632 252.776 446.935 251.174 451.99C247.96 462.083 245.064 471.175 242.626 478.83C240.178 486.424 238.192 492.587 236.8 496.906C236.108 498.996 235.565 500.637 235.177 501.809C234.996 502.335 234.85 502.752 234.737 503.078C234.634 503.363 234.574 503.506 234.562 503.502" fill="#33535F"/>
<path d="M233.704 521.134C233.743 521.032 234.984 521.482 237.271 522.27C239.807 523.157 242.837 524.217 246.188 525.388C249.541 526.557 252.573 527.615 255.109 528.499C257.391 529.305 258.792 529.837 258.76 529.94C258.728 530.04 257.269 529.693 254.943 529.018C252.616 528.344 249.424 527.334 245.935 526.116C242.444 524.899 239.319 523.701 237.079 522.782C234.836 521.861 233.665 521.232 233.704 521.134" fill="#33535F"/>
<path d="M213.444 410.225C213.431 410.208 213.615 410.025 214.028 409.755C214.443 409.495 215.099 409.147 216.02 408.933C216.932 408.723 218.131 408.635 219.44 409.016C220.736 409.389 222.126 410.243 223.138 411.639C224.188 413.031 224.594 414.971 224.604 416.927C224.61 418.9 224.479 420.954 224.41 423.14C224.294 425.312 224.347 427.625 223.856 430.023C223.607 431.209 223.204 432.428 222.466 433.502C221.736 434.571 220.628 435.464 219.318 435.827C216.666 436.556 213.954 435.471 212.196 433.749C210.424 431.961 209.614 429.613 209.256 427.432C208.632 423.011 209.268 419.015 210.134 415.808C210.587 414.213 211.074 412.761 211.807 411.621C212.519 410.471 213.499 409.713 214.394 409.384C215.29 409.044 216.064 409.064 216.546 409.184C217.032 409.3 217.248 409.457 217.24 409.471C217.248 409.572 216.203 408.941 214.508 409.661C213.686 410.016 212.818 410.739 212.175 411.848C211.516 412.943 211.075 414.367 210.66 415.949C209.876 419.103 209.316 423.071 209.959 427.316C210.315 429.404 211.115 431.601 212.727 433.211C214.318 434.771 216.822 435.728 219.103 435.084C220.228 434.775 221.183 434.011 221.834 433.066C222.492 432.116 222.875 430.992 223.116 429.864C223.595 427.596 223.566 425.288 223.699 423.109C223.788 420.933 223.943 418.845 223.964 416.933C223.978 415.029 223.626 413.249 222.694 411.955C221.787 410.645 220.514 409.815 219.312 409.428C218.103 409.032 216.964 409.071 216.08 409.228C214.291 409.579 213.483 410.305 213.444 410.225" fill="#33535F"/>
<path d="M269.397 421.377C269.413 421.589 266.127 422.011 262.056 422.315C257.987 422.621 254.673 422.695 254.657 422.483C254.641 422.271 257.928 421.851 261.999 421.545C266.068 421.241 269.383 421.165 269.397 421.377Z" fill="#33535F"/>
<path d="M266.862 425.75C266.803 425.956 264.284 425.408 261.238 424.527C258.191 423.648 255.77 422.768 255.828 422.563C255.887 422.36 258.406 422.906 261.452 423.786C264.499 424.666 266.92 425.545 266.862 425.75Z" fill="#33535F"/>
<path d="M284.584 413.655C284.591 413.64 284.82 413.713 285.187 413.973C285.555 414.228 286.051 414.708 286.457 415.471C287.329 416.99 287.548 419.532 287.489 422.516C287.443 425.504 287.24 429.199 285.62 432.933C284.809 434.777 283.636 436.616 281.975 438.101C281.159 438.837 280.192 439.532 279.027 439.86C278.444 440.017 277.8 440.075 277.167 439.916C276.539 439.757 275.96 439.377 275.56 438.877C274.753 437.868 274.499 436.666 274.291 435.572C274.064 434.465 273.949 433.356 273.857 432.266C273.719 430.085 273.819 427.971 274.121 425.987C274.739 422.015 276.117 418.613 277.665 416.009C278.449 414.711 279.42 413.619 280.552 413.065C281.681 412.475 282.864 412.596 283.659 412.912C284.48 413.233 284.955 413.785 285.155 414.191C285.351 414.605 285.331 414.853 285.331 414.853C285.292 414.863 285.245 414.631 285.019 414.268C284.789 413.915 284.324 413.448 283.555 413.193C282.804 412.947 281.741 412.884 280.751 413.448C279.741 413.984 278.864 415.017 278.135 416.289C276.684 418.863 275.387 422.213 274.825 426.09C274.549 428.028 274.467 430.09 274.611 432.213C274.708 433.272 274.823 434.351 275.047 435.425C275.243 436.496 275.511 437.592 276.156 438.385C276.781 439.196 277.844 439.412 278.824 439.12C279.817 438.842 280.692 438.236 281.471 437.536C283.04 436.149 284.173 434.409 284.971 432.644C286.563 429.08 286.832 425.464 286.943 422.505C287.069 419.521 286.935 417.089 286.189 415.604C285.479 414.105 284.512 413.729 284.584 413.655" fill="#33535F"/>
<path d="M306.9 170.728L315.79 209.311L336.599 204.808L329.326 165.224L306.9 170.728Z" fill="#17282F"/>
<path d="M309.364 172.717L316.174 203.604L334.227 199.152L327.774 168.123L309.364 172.717" fill="white"/>
<path d="M327.845 204.03C327.845 205.088 326.989 205.946 325.932 205.946C324.874 205.946 324.016 205.088 324.016 204.03C324.016 202.973 324.874 202.117 325.932 202.117C326.989 202.117 327.845 202.973 327.845 204.03Z" fill="#33535F"/>
<path d="M322.289 168.537L314.04 170.392L314.065 170.511L322.316 168.656L322.289 168.537" fill="#33535F"/>
<path d="M329.671 183.49L313.764 187.065L310.911 174.366L326.819 170.793L329.671 183.49" fill="#0EA5E9" fill-opacity="0.1"/>
<path d="M314.192 188.529L315.398 193.048L331.008 189.483L329.904 184.564L314.192 188.529" fill="#082F49" fill-opacity="0.4"/>
<path d="M315.923 194.802L317.35 201.67L332.778 197.813L331.299 191.261L315.923 194.802" fill="#0284C7" fill-opacity="0.3" style="mix-blend-mode:multiply"/>
<path d="M201.369 238.819C200.952 241.141 200.32 244.667 199.58 248.804C208.687 249.184 219.639 249.668 231.427 250.215C243.869 250.793 255.376 251.355 264.768 251.836L264.671 241.748C255.381 241.36 244.083 240.86 231.887 240.296C220.663 239.775 210.204 239.267 201.369 238.819" fill="#BE185D"/>
<path d="M188.518 195.275C186.759 198.428 185.234 201.873 183.926 205.345C193.859 205.692 212.294 206.471 233.411 207.451C252.194 208.321 268.863 209.157 279.3 209.736C277.846 206.107 276.176 202.376 274.42 199.299C264.051 198.887 249.711 198.265 233.872 197.529C215.398 196.673 198.983 195.852 188.518 195.275" fill="#BE185D"/>
<path d="M245.335 186.43C244.592 187.381 243.824 188.152 243.043 188.794C250.162 189.132 256.839 189.458 262.839 189.76C254.798 186.91 245.335 186.43 245.335 186.43Z" fill="#BE185D"/>
<path d="M214.276 302.519L265.328 310.589L265.272 304.809C255.362 304.405 242.648 303.848 228.783 303.204C223.77 302.971 218.91 302.743 214.276 302.519Z" fill="#BE185D"/>
<path d="M266.742 247.026L270.614 241.99C268.759 241.916 266.786 241.836 264.718 241.749L266.742 247.026Z" fill="#BE185D"/>
<path d="M193.402 281.277C192.59 284.945 191.782 288.45 191.114 291.301C201.265 291.71 214.701 292.297 229.441 292.98C242.964 293.608 255.381 294.216 265.176 294.724L265.08 284.612C255.369 284.212 243.165 283.676 229.901 283.061C216.026 282.416 203.309 281.793 193.402 281.277" fill="#BE185D"/>
<path d="M190.981 291.868C190.113 295.569 189.512 298.027 189.512 298.027L208.21 301.503C214.608 301.784 221.552 302.096 228.818 302.433C242.666 303.077 255.366 303.699 265.266 304.213L265.181 295.328C255.377 294.925 242.942 294.38 229.405 293.752C214.614 293.065 201.138 292.403 190.981 291.868" fill="#BE185D"/>
<path d="M195.639 270.676C195.008 273.87 194.274 277.332 193.532 280.688C203.43 281.092 216.111 281.646 229.938 282.289C243.187 282.905 255.374 283.501 265.074 284.001L264.978 273.896C255.367 273.498 243.388 272.972 230.398 272.368C217.32 271.761 205.276 271.173 195.639 270.676" fill="#BE185D"/>
<path d="M180.431 216.246C179.307 220.384 178.515 224.03 178.015 226.574C185.539 226.768 207.044 227.654 232.419 228.833C251.597 229.722 268.56 230.574 278.947 231.154L284.336 224.144C284.336 224.144 283.987 222.96 283.369 221.052C273.711 220.725 254.723 219.925 232.879 218.913C209.419 217.824 189.273 216.793 180.431 216.246Z" fill="#BE185D"/>
<path d="M177.968 226.811C177.544 228.991 177.344 230.299 177.344 230.299L201.901 235.863C201.901 235.863 201.749 236.707 201.486 238.171C210.305 238.543 220.736 239.005 231.922 239.525C247.052 240.227 260.8 240.905 271.034 241.444L278.61 231.591C268.189 231.204 251.366 230.485 232.382 229.604C206.969 228.424 185.445 227.313 177.968 226.811" fill="#BE185D"/>
<path d="M199.467 249.438C198.912 252.538 198.304 255.949 197.683 259.436C207.059 259.825 218.529 260.332 230.929 260.908C243.637 261.496 255.372 262.069 264.869 262.557L264.773 252.464C255.372 252.073 243.849 251.565 231.389 250.986C219.568 250.438 208.585 249.905 199.467 249.438" fill="#BE185D"/>
<path d="M183.782 205.725C182.482 209.22 181.395 212.72 180.514 215.94C189.403 216.217 209.512 217.056 232.915 218.141C254.651 219.149 273.556 220.11 283.248 220.681C282.391 218.049 281.078 214.217 279.487 210.204C269.055 209.816 252.287 209.098 233.375 208.221C212.167 207.237 193.672 206.301 183.782 205.725" fill="#BE185D"/>
<path d="M197.572 260.058C197.204 262.129 196.832 264.22 196.468 266.28C196.256 267.472 196.017 268.746 195.759 270.068C205.385 270.465 217.397 270.993 230.433 271.597C243.409 272.2 255.371 272.785 264.972 273.28L264.876 263.18C255.368 262.785 243.616 262.269 230.893 261.678C218.457 261.1 206.959 260.54 197.572 260.058" fill="#BE185D"/>
<path d="M227.544 188.073C224.402 185.972 222.29 183.605 222.29 183.605C222.29 183.605 209.307 177.904 199.16 183.415C197.631 184.245 196.196 185.348 194.85 186.66C203.586 187.009 214.935 187.499 227.544 188.073Z" fill="#BE185D"/>
<path d="M194.334 187.192C192.272 189.317 190.421 191.925 188.774 194.812C199.258 195.209 215.57 195.908 233.908 196.759C249.569 197.485 263.754 198.187 274.089 198.736C272.665 196.32 271.19 194.357 269.736 193.26C268.312 192.187 266.612 191.28 264.786 190.512C258.037 190.228 250.338 189.889 242.076 189.515C237.56 192.521 232.666 191.108 228.874 188.903C215.482 188.272 203.44 187.675 194.334 187.192" fill="#BE185D"/>
<path d="M188.775 194.812C188.688 194.965 188.604 195.121 188.518 195.274C198.983 195.852 215.398 196.673 233.872 197.529C249.711 198.265 264.051 198.886 274.42 199.298C274.311 199.106 274.2 198.921 274.09 198.736C263.755 198.186 249.57 197.485 233.908 196.758C215.571 195.908 199.259 195.209 188.775 194.812Z" fill="#17282F"/>
<path d="M262.839 189.76C256.839 189.458 250.162 189.132 243.043 188.794C242.723 189.058 242.4 189.298 242.076 189.514C250.339 189.889 258.038 190.228 264.787 190.512C264.152 190.245 263.5 189.993 262.839 189.76" fill="#17282F"/>
<path d="M194.85 186.66C194.674 186.829 194.506 187.014 194.335 187.192C203.44 187.674 215.483 188.272 228.875 188.902C228.414 188.636 227.97 188.358 227.544 188.073C214.935 187.498 203.586 187.009 194.85 186.66Z" fill="#17282F"/>
<path d="M183.925 205.345C183.879 205.472 183.828 205.598 183.781 205.725C193.672 206.301 212.167 207.237 233.375 208.221C252.287 209.098 269.055 209.816 279.487 210.204C279.424 210.048 279.363 209.892 279.3 209.736C268.863 209.157 252.193 208.321 233.411 207.45C212.293 206.47 193.859 205.692 183.925 205.345" fill="#17282F"/>
<path d="M180.513 215.94L180.431 216.246C189.273 216.793 209.419 217.824 232.879 218.913C254.723 219.925 273.711 220.725 283.369 221.052C283.331 220.932 283.289 220.805 283.248 220.681C273.556 220.11 254.651 219.149 232.915 218.141C209.512 217.056 189.403 216.217 180.513 215.94" fill="#17282F"/>
<path d="M178.014 226.574L177.968 226.81C185.445 227.313 206.969 228.424 232.382 229.604C251.366 230.485 268.189 231.204 278.61 231.59L278.946 231.154C268.56 230.574 251.597 229.722 232.418 228.833C207.044 227.654 185.538 226.768 178.014 226.574Z" fill="#17282F"/>
<path d="M201.486 238.171C201.449 238.375 201.41 238.591 201.369 238.819C210.204 239.267 220.662 239.775 231.886 240.296C244.082 240.86 255.381 241.36 264.67 241.748L264.669 241.627L264.717 241.749C266.785 241.836 268.758 241.916 270.613 241.991L271.034 241.444C260.8 240.905 247.052 240.227 231.922 239.525C220.736 239.005 210.305 238.543 201.486 238.171" fill="#17282F"/>
<path d="M199.58 248.804C199.543 249.013 199.504 249.225 199.467 249.439C208.585 249.905 219.568 250.439 231.389 250.987C243.849 251.565 255.372 252.073 264.773 252.464L264.785 252.465L264.779 251.836H264.768C255.376 251.355 243.869 250.793 231.427 250.215C219.639 249.668 208.687 249.184 199.58 248.804" fill="#17282F"/>
<path d="M197.683 259.436C197.647 259.642 197.61 259.85 197.572 260.058C206.959 260.54 218.458 261.1 230.894 261.678C243.616 262.269 255.368 262.785 264.876 263.18L264.899 263.181L264.892 262.558L264.87 262.557C255.372 262.069 243.638 261.496 230.93 260.908C218.53 260.332 207.059 259.825 197.683 259.436" fill="#17282F"/>
<path d="M195.759 270.068C195.72 270.269 195.68 270.472 195.639 270.676C205.276 271.173 217.32 271.761 230.397 272.368C243.388 272.972 255.367 273.498 264.977 273.896L265.013 273.897L265.007 273.281L264.972 273.28C255.371 272.785 243.409 272.2 230.433 271.597C217.397 270.993 205.385 270.465 195.759 270.068" fill="#17282F"/>
<path d="M193.532 280.688C193.489 280.885 193.445 281.083 193.402 281.277C203.309 281.793 216.026 282.416 229.901 283.061C243.165 283.676 255.369 284.212 265.08 284.612L265.128 284.613L265.121 284.004L265.073 284.001C255.373 283.501 243.186 282.905 229.937 282.289C216.11 281.647 203.429 281.092 193.532 280.688" fill="#17282F"/>
<path d="M191.115 291.301C191.069 291.493 191.027 291.683 190.981 291.868C201.139 292.403 214.615 293.065 229.405 293.752C242.943 294.38 255.377 294.925 265.181 295.328L265.241 295.331L265.235 294.728L265.176 294.724C255.381 294.216 242.964 293.608 229.441 292.98C214.701 292.297 201.265 291.711 191.115 291.301" fill="#17282F"/>
<path d="M208.211 301.503L213.466 302.479C213.736 302.492 214.003 302.505 214.276 302.519C218.91 302.743 223.77 302.971 228.783 303.204C242.648 303.848 255.362 304.405 265.272 304.809L265.343 304.812L265.336 304.217L265.267 304.213C255.367 303.699 242.667 303.077 228.819 302.433C221.552 302.096 214.608 301.784 208.211 301.503Z" fill="#17282F"/>
<path d="M265.059 251.517C264.847 251.537 263.928 243.79 263.006 234.217C262.083 224.638 261.507 216.86 261.72 216.841C261.932 216.821 262.851 224.566 263.775 234.142C264.696 243.717 265.272 251.496 265.059 251.517Z" fill="#17282F"/>
<path d="M264.191 213.076C264.367 213.194 263.791 214.352 262.904 215.657C262.017 216.965 261.157 217.928 260.98 217.808C260.804 217.689 261.38 216.532 262.267 215.225C263.153 213.917 264.013 212.956 264.191 213.076" fill="#17282F"/>
<path d="M252.048 254.63C252.148 254.818 242.809 259.944 231.193 266.078C219.572 272.212 210.074 277.032 209.974 276.844C209.876 276.654 219.212 271.529 230.832 265.394C242.448 259.261 251.948 254.441 252.048 254.63" fill="#17282F"/>
<path d="M254.292 263.816C254.308 263.924 252.608 264.258 249.858 264.769C246.875 265.329 243.194 266.024 239.122 266.79C235.059 267.614 231.387 268.36 228.414 268.965C225.674 269.529 223.972 269.86 223.946 269.753C223.92 269.652 225.578 269.136 228.29 268.433C231.002 267.73 234.775 266.854 238.972 266.032C243.17 265.212 246.994 264.6 249.771 264.23C252.55 263.858 254.278 263.713 254.292 263.816" fill="#17282F"/>
<path d="M203.172 223.02C203.276 223.025 203.316 224.34 203.23 226.462C203.146 228.584 202.922 231.512 202.505 234.725C202.085 237.94 201.554 240.828 201.092 242.9C200.63 244.972 200.256 246.233 200.154 246.212C200.048 246.189 200.233 244.89 200.556 242.8C200.878 240.709 201.322 237.824 201.74 234.626C202.154 231.428 202.464 228.526 202.686 226.422C202.91 224.318 203.062 223.014 203.172 223.02" fill="#17282F"/>
<path d="M245.517 185.899C245.553 185.928 245.343 186.253 244.921 186.808C244.495 187.36 243.864 188.155 242.952 189.029C242.043 189.889 240.799 190.856 239.141 191.34C237.493 191.829 235.561 191.767 233.687 191.288C229.925 190.283 226.975 188.297 225.072 186.679C224.12 185.86 223.42 185.124 222.965 184.592C222.509 184.061 222.297 183.736 222.329 183.707C222.415 183.629 223.44 184.783 225.383 186.299C227.317 187.785 230.256 189.655 233.856 190.613C235.649 191.072 237.444 191.141 238.969 190.724C240.496 190.313 241.699 189.455 242.623 188.665C244.448 187.031 245.423 185.811 245.517 185.899" fill="#17282F"/>
<path d="M390.947 148.473C390.947 151.496 388.496 153.947 385.473 153.947C382.451 153.947 380 151.496 380 148.473C380 145.451 382.451 143 385.473 143C388.496 143 390.947 145.451 390.947 148.473Z" fill="white"/>
<path d="M409.784 148.473C409.784 151.496 407.333 153.947 404.31 153.947C401.287 153.947 398.837 151.496 398.837 148.473C398.837 145.451 401.287 143 404.31 143C407.333 143 409.784 145.451 409.784 148.473Z" fill="white"/>
<path d="M428.621 148.473C428.621 151.496 426.171 153.947 423.148 153.947C420.125 153.947 417.675 151.496 417.675 148.473C417.675 145.451 420.125 143 423.148 143C426.171 143 428.621 145.451 428.621 148.473Z" fill="white"/>
</g>
<defs>
<clipPath id="clip0_131_454">
<rect width="511.84" height="549.747" fill="white"/>
</clipPath>
</defs>
</svg>
